<svg width="26" height="22" viewBox="0 0 26 22" fill="none" xmlns="http://www.w3.org/2000/svg">
<path d="M1.62475 22C1.20895 22 0.792949 21.8465 0.476074 21.5396C-0.158691 20.9258 -0.158691 19.9313 0.476074 19.3175L9.07943 10.9999L0.476074 2.68251C-0.158691 2.06866 -0.158691 1.07423 0.476074 0.460385C1.11084 -0.153462 2.13916 -0.153462 2.77393 0.460385L12.5239 9.88906C13.1587 10.5029 13.1587 11.4973 12.5239 12.1112L2.77393 21.5399C2.45756 21.8478 2.04115 22 1.62475 22Z" fill="#FCFCFC"/>
<path d="M14.6247 22C14.2089 22 13.7929 21.8465 13.4761 21.5396C12.8413 20.9258 12.8413 19.9313 13.4761 19.3175L22.0794 10.9999L13.4761 2.68251C12.8413 2.06866 12.8413 1.07423 13.4761 0.460385C14.1108 -0.153462 15.1392 -0.153462 15.7739 0.460385L25.5239 9.88906C26.1587 10.5029 26.1587 11.4973 25.5239 12.1112L15.7739 21.5399C15.4576 21.8478 15.0412 22 14.6247 22Z" fill="#FCFCFC"/>
</svg>
