<svg width="55" height="43" viewBox="0 0 55 43" fill="none" xmlns="http://www.w3.org/2000/svg">
<path d="M26.9729 19.7937H22.8159V12.9634H27.7475C30.4288 12.9634 31.9504 14.137 31.9504 16.2594C31.9504 18.5257 30.1788 19.7937 26.9684 19.7937H26.9729ZM27.7154 22.5049H22.8182V30.0321H27.9309C31.2744 30.0321 33.0459 28.7168 33.0459 26.2438C33.0459 23.7707 31.2238 22.5049 27.7154 22.5049ZM55 20.1308V22.8692C52.415 23.1122 50.8362 24.9916 49.8988 27.9683C48.9662 30.9337 48.8376 34.5715 48.9363 37.3794C49.0394 40.3021 46.7179 43 43.5807 43H11.4239C8.28437 43 5.96291 40.3021 6.06834 37.3794C6.16688 34.5715 6.03854 30.9337 5.10584 27.9683C4.16625 24.9916 2.585 23.1122 0 22.8692V20.1308C2.585 19.888 4.16854 18.0084 5.10354 15.0317C6.03854 12.0663 6.16687 8.42868 6.06604 5.62062C5.96291 2.69791 8.28437 0 11.4239 0H43.5807C46.7201 0 49.0394 2.69791 48.9363 5.62062C48.8376 8.42868 48.9662 12.0663 49.8988 15.0317C50.8362 18.0084 52.415 19.888 55 20.1308ZM36.8338 26.464C36.8338 23.4202 34.65 21.2191 31.4074 20.8706V20.7423C33.7907 20.3624 35.6607 18.1906 35.6607 15.767C35.6607 12.3114 32.8809 10.0609 28.6437 10.0609H19.1103V32.9299H28.6916C33.7746 32.9299 36.8338 30.4884 36.8338 26.464Z" fill="#8B12FC"/>
</svg>
