<svg width="41" height="48" viewBox="0 0 41 48" fill="none" xmlns="http://www.w3.org/2000/svg">
<path d="M3.75888 42.7721L0.0335693 0.735657H40.966L37.2374 42.7652L20.4747 47.4413L3.75888 42.7721Z" fill="#1572B6"/>
<path d="M20.5005 43.8673L34.0449 40.0892L37.2315 4.17303H20.5005V43.8673Z" fill="#33A9DC"/>
<path d="M20.5 19.4026H27.2807L27.7496 14.1233H20.5V8.96765H33.3497L33.2269 10.3508L31.9676 24.5578H20.5V19.4026Z" fill="white"/>
<path d="M20.5308 32.7922L20.5082 32.7987L14.8013 31.248L14.436 27.1361H9.29272L10.0109 35.2311L20.5073 38.1626L20.5312 38.1557V32.7922H20.5308Z" fill="#EBEBEB"/>
<path d="M26.8456 24.3398L26.2281 31.2443L20.5129 32.7963V38.1603L31.0181 35.2311L31.0954 34.36L31.987 24.3398H26.8456Z" fill="white"/>
<path d="M20.518 8.96765V14.1229H8.14032L8.03726 12.9643L7.80399 10.3508L7.68115 8.96765H20.518ZM20.5 19.4031V24.5587H14.8654L14.7628 23.4001L14.5291 20.7862L14.4062 19.4031H20.5Z" fill="#EBEBEB"/>
</svg>
