<svg width="41" height="47" viewBox="0 0 41 47" fill="none" xmlns="http://www.w3.org/2000/svg">
<g clip-path="url(#clip0_305_103)">
<path d="M3.68066 41.881L0.032959 0.720276H40.1126L36.4617 41.8742L20.0482 46.4529L3.68066 41.881V41.881Z" fill="#1572B6"/>
<path d="M20.0735 42.9534L33.3358 39.254L36.4559 4.08612H20.0735V42.9534Z" fill="#33A9DC"/>
<path d="M20.073 18.9984H26.7125L27.1715 13.8291H20.073V8.78082H32.655L32.5347 10.1351L31.3017 24.0462H20.073V18.9984Z" fill="white"/>
<path d="M20.103 32.109L20.081 32.1154L14.493 30.597L14.1353 26.5708H9.09912L9.80235 34.4972L20.0801 37.3676L20.1035 37.3608V32.109H20.103Z" fill="#EBEBEB"/>
<path d="M26.2861 23.8327L25.6816 30.5933L20.0854 32.1131V37.3653L30.3717 34.4972L30.4474 33.6441L31.3205 23.8327H26.2861Z" fill="white"/>
<path d="M20.0904 8.78082V13.8286H7.9706L7.86968 12.6942L7.64128 10.1351L7.521 8.78082H20.0904ZM20.0728 18.9988V24.0471H14.5556L14.4551 22.9126L14.2262 20.3531L14.106 18.9988H20.0728Z" fill="#EBEBEB"/>
</g>
<defs>
<clipPath id="clip0_305_103">
<rect width="40.1458" height="47" fill="white"/>
</clipPath>
</defs>
</svg>
