<svg width="26" height="25" viewBox="0 0 26 25" fill="none" xmlns="http://www.w3.org/2000/svg">
<path d="M14.3625 1.78571C14.3625 0.799665 15.1605 0 16.1482 0H23.2408C23.531 0 23.7654 0.0479911 23.9719 0.135603C24.1337 0.222098 24.3792 0.349888 24.5522 0.518973C24.5522 0.521763 24.5522 0.524553 24.5578 0.526786C24.9038 0.873884 25.0266 1.32701 25.0768 1.78013C25.0768 1.78237 25.0768 1.78404 25.0768 1.78571V8.92857C25.0768 9.91629 24.2788 10.7143 23.2911 10.7143C22.3033 10.7143 21.5054 9.91629 21.5054 8.92857V6.09933L12.0522 15.5469C11.3547 16.2444 10.2275 16.2444 9.52991 15.5469C8.83236 14.8493 8.83236 13.7221 9.52991 13.0246L18.9775 3.57143H16.1482C15.1605 3.57143 14.3625 2.77176 14.3625 1.78571ZM0.0767822 5.35714C0.0767822 3.38449 1.67555 1.78571 3.64821 1.78571H9.00535C9.99308 1.78571 10.7911 2.58538 10.7911 3.57143C10.7911 4.55915 9.99308 5.35714 9.00535 5.35714H3.64821V21.4286H19.7196V16.0714C19.7196 15.0837 20.5176 14.2857 21.5054 14.2857C22.4931 14.2857 23.2911 15.0837 23.2911 16.0714V21.4286C23.2911 23.3984 21.6895 25 19.7196 25H3.64821C1.67555 25 0.0767822 23.3984 0.0767822 21.4286V5.35714Z" fill="#FCFCFC"/>
</svg>
