<svg width="40" height="28" viewBox="0 0 40 28" fill="none" xmlns="http://www.w3.org/2000/svg">
<path d="M9 27.5C4.02938 27.5 0 23.6127 0 18.8214C0 15.0366 2.51062 11.8183 6.0125 10.631C6.00437 10.4683 6 10.3056 6 10.1429C6 4.81518 10.475 0.5 16 0.5C19.7062 0.5 22.9375 2.44364 24.6687 5.33348C25.6187 4.66451 26.7687 4.35714 28 4.35714C31.3125 4.35714 34 6.89442 34 10.1429C34 10.8781 33.8562 11.5772 33.6 12.2281C37.25 12.9393 40 16.0551 40 19.7857C40 24.0467 36.4187 27.5 32 27.5H9ZM18.9375 22.2025C19.525 22.8172 20.475 22.8172 21.0063 22.2025L26.0062 17.381C26.6437 16.8688 26.6437 15.9527 26.0062 15.3862C25.475 14.8257 24.525 14.8257 23.9375 15.3862L21.5 17.7426V9.66071C21.5 8.85915 20.8312 8.21429 20 8.21429C19.1687 8.21429 18.5 8.85915 18.5 9.66071V17.7426L16.0062 15.3862C15.475 14.8257 14.525 14.8257 13.9375 15.3862C13.3562 15.9527 13.3562 16.8688 13.9375 17.381L18.9375 22.2025Z" fill="url(#paint0_linear_5_24)"/>
<defs>
<linearGradient id="paint0_linear_5_24" x1="0" y1="19.5" x2="40" y2="19.5" gradientUnits="userSpaceOnUse">
<stop offset="0.0260417" stop-color="#975CED"/>
<stop offset="1" stop-color="#C854A6"/>
</linearGradient>
</defs>
</svg>
