<svg width="46" height="46" viewBox="0 0 46 46" fill="none" xmlns="http://www.w3.org/2000/svg">
<path d="M15.3393 46C17.3726 46 19.3227 45.1923 20.7604 43.7544C22.1982 42.3167 23.0059 40.3667 23.0059 38.3333V30.6666H15.3393C13.306 30.6666 11.3559 31.4744 9.91811 32.9121C8.48034 34.35 7.67261 36.3 7.67261 38.3333C7.67261 40.3667 8.48034 42.3167 9.91811 43.7544C11.3559 45.1923 13.306 46 15.3393 46Z" fill="#0ACF83"/>
<path d="M7.67261 23C7.67261 20.9667 8.48034 19.0167 9.91811 17.5789C11.3559 16.1411 13.306 15.3334 15.3393 15.3334H23.0059V30.6667H15.3393C13.306 30.6667 11.3559 29.859 9.91811 28.4212C8.48034 26.9834 7.67261 25.0333 7.67261 23Z" fill="#A259FF"/>
<path d="M7.67261 7.66666C7.67261 5.63437 8.47952 3.68524 9.91596 2.24763C11.3525 0.810025 13.301 0.00158772 15.3333 0H22.9999V15.3334H15.3393C13.306 15.3334 11.3559 14.5256 9.91811 13.0878C8.48034 11.65 7.67261 9.69999 7.67261 7.66666Z" fill="#F24E1E"/>
<path d="M23.0059 0H30.6725C32.7059 0 34.6559 0.807735 36.0936 2.24551C37.5315 3.6833 38.3392 5.63334 38.3392 7.66666C38.3392 9.69999 37.5315 11.65 36.0936 13.0878C34.6559 14.5256 32.7059 15.3334 30.6725 15.3334H23.0059V0Z" fill="#FF7262"/>
<path d="M38.3392 23C38.3392 25.0333 37.5315 26.9834 36.0936 28.4212C34.6559 29.859 32.7059 30.6667 30.6725 30.6667C28.6392 30.6667 26.6892 29.859 25.2513 28.4212C23.8136 26.9834 23.0059 25.0333 23.0059 23C23.0059 20.9667 23.8136 19.0167 25.2513 17.5789C26.6892 16.1411 28.6392 15.3334 30.6725 15.3334C32.7059 15.3334 34.6559 16.1411 36.0936 17.5789C37.5315 19.0167 38.3392 20.9667 38.3392 23Z" fill="#1ABCFE"/>
</svg>
