<svg width="49" height="46" viewBox="0 0 49 46" fill="none" xmlns="http://www.w3.org/2000/svg">
<g clip-path="url(#clip0_21_1539)">
<path d="M48.075 20.9516L26.6819 0.868275C26.389 0.593142 26.0412 0.374887 25.6584 0.225979C25.2756 0.0770708 24.8653 0.000427246 24.4509 0.000427246C24.0365 0.000427246 23.6262 0.0770708 23.2434 0.225979C22.8606 0.374887 22.5128 0.593142 22.2199 0.868275L17.7793 5.03702L23.4143 10.327C24.725 9.89577 26.2256 10.1905 27.2699 11.1708C27.7671 11.6384 28.1141 12.2277 28.2714 12.8716C28.4287 13.5154 28.39 14.1878 28.1596 14.812L33.5909 19.9108C34.9048 19.4853 36.4207 19.7599 37.4696 20.7475C37.8183 21.0749 38.0949 21.4636 38.2835 21.8914C38.4722 22.3191 38.5693 22.7776 38.5692 23.2406C38.5691 23.7036 38.4719 24.162 38.2831 24.5897C38.0943 25.0175 37.8176 25.4061 37.4688 25.7334C37.1201 26.0608 36.706 26.3204 36.2503 26.4975C35.7947 26.6746 35.3063 26.7658 34.8131 26.7657C34.3199 26.7656 33.8316 26.6744 33.376 26.4971C32.9203 26.3199 32.5064 26.0601 32.1577 25.7327C31.0552 24.6977 30.7826 23.174 31.34 21.8989L26.2746 17.1436V29.6571C26.6423 29.8279 26.9784 30.0531 27.2699 30.3241C27.6186 30.6514 27.8952 31.04 28.0839 31.4677C28.2726 31.8954 28.3698 32.3538 28.3698 32.8167C28.3698 33.2796 28.2726 33.738 28.0839 34.1657C27.8952 34.5934 27.6186 34.982 27.2699 35.3093C26.9213 35.6367 26.5073 35.8963 26.0517 36.0735C25.5962 36.2506 25.1079 36.3418 24.6148 36.3418C24.1216 36.3418 23.6334 36.2506 23.1778 36.0735C22.7222 35.8963 22.3083 35.6367 21.9596 35.3093C21.6105 34.9822 21.3335 34.5937 21.1446 34.166C20.9556 33.7383 20.8583 33.2798 20.8583 32.8167C20.8583 32.3537 20.9556 31.8952 21.1446 31.4675C21.3335 31.0397 21.6105 30.6512 21.9596 30.3241C22.3225 29.9848 22.7252 29.7275 23.1892 29.555V16.9251C22.742 16.7526 22.3225 16.4982 21.9596 16.1561C21.4323 15.6617 21.0738 15.0311 20.9298 14.3448C20.7859 13.6584 20.8629 12.9473 21.1511 12.3021L15.5926 7.0869L0.92326 20.8438C0.629954 21.1188 0.397271 21.4454 0.238516 21.8049C0.0797607 22.1644 -0.00195312 22.5498 -0.00195312 22.9389C-0.00195312 23.3281 0.0797607 23.7135 0.238516 24.073C0.397271 24.4325 0.629954 24.7591 0.92326 25.0341L22.3179 45.116C22.6108 45.3911 22.9586 45.6093 23.3414 45.7583C23.7242 45.9072 24.1345 45.9838 24.5489 45.9838C24.9633 45.9838 25.3736 45.9072 25.7564 45.7583C26.1392 45.6093 26.487 45.3911 26.7799 45.116L48.075 25.1563C48.3683 24.8812 48.601 24.5546 48.7598 24.1951C48.9185 23.8356 49.0003 23.4503 49.0003 23.0611C49.0003 22.6719 48.9185 22.2866 48.7598 21.9271C48.601 21.5676 48.3683 21.241 48.075 20.966" fill="#F03C2E"/>
</g>
<defs>
<clipPath id="clip0_21_1539">
<rect width="49" height="46" fill="white"/>
</clipPath>
</defs>
</svg>
