<svg width="46" height="43" viewBox="0 0 46 43" fill="none" xmlns="http://www.w3.org/2000/svg">
<g clip-path="url(#clip0_305_42)">
<path d="M45.1315 19.5852L25.0482 0.811676C24.7732 0.554487 24.4467 0.350466 24.0874 0.211269C23.728 0.0720723 23.3428 0.000427246 22.9538 0.000427246C22.5648 0.000427246 22.1796 0.0720723 21.8202 0.211269C21.4609 0.350466 21.1343 0.554487 20.8594 0.811676L16.6907 4.70855L21.9807 9.65353C23.2111 9.25042 24.6198 9.52593 25.6002 10.4423C26.067 10.8794 26.3927 11.4303 26.5404 12.0322C26.688 12.634 26.6517 13.2625 26.4354 13.846L31.5342 18.6123C32.7677 18.2145 34.1907 18.4712 35.1754 19.3944C35.5028 19.7005 35.7624 20.0638 35.9395 20.4637C36.1166 20.8635 36.2078 21.2921 36.2077 21.7249C36.2076 22.1577 36.1164 22.5862 35.9391 22.9861C35.7619 23.386 35.5021 23.7492 35.1747 24.0552C34.8473 24.3612 34.4586 24.6039 34.0308 24.7694C33.6031 24.935 33.1446 25.0202 32.6816 25.0201C32.2186 25.02 31.7602 24.9348 31.3325 24.7691C30.9047 24.6034 30.5161 24.3606 30.1887 24.0545C29.1537 23.087 28.8978 21.6627 29.4211 20.4707L24.6658 16.0256V27.723C25.011 27.8826 25.3265 28.0931 25.6002 28.3465C25.9275 28.6524 26.1872 29.0157 26.3644 29.4155C26.5415 29.8153 26.6328 30.2438 26.6328 30.6765C26.6328 31.1092 26.5415 31.5377 26.3644 31.9375C26.1872 32.3373 25.9275 32.7006 25.6002 33.0065C25.2729 33.3126 24.8843 33.5553 24.4566 33.7209C24.029 33.8865 23.5706 33.9717 23.1077 33.9717C22.6446 33.9717 22.1863 33.8865 21.7586 33.7209C21.3309 33.5553 20.9424 33.3126 20.615 33.0065C20.2873 32.7008 20.0272 32.3376 19.8499 31.9378C19.6725 31.538 19.5811 31.1094 19.5811 30.6765C19.5811 30.2437 19.6725 29.8151 19.8499 29.4153C20.0272 29.0154 20.2873 28.6522 20.615 28.3465C20.9557 28.0293 21.3337 27.7888 21.7693 27.6275V15.8213C21.3495 15.6601 20.9557 15.4223 20.615 15.1025C20.12 14.6403 19.7834 14.0508 19.6483 13.4093C19.5132 12.7677 19.5855 12.1029 19.856 11.4998L14.6378 6.62474L0.866614 19.4844C0.591266 19.7415 0.372829 20.0468 0.223793 20.3829C0.0747578 20.7189 -0.00195312 21.0792 -0.00195312 21.4429C-0.00195312 21.8067 0.0747578 22.167 0.223793 22.503C0.372829 22.8391 0.591266 23.1444 0.866614 23.4015L20.9514 42.1737C21.2263 42.4308 21.5529 42.6348 21.9122 42.7741C22.2716 42.9133 22.6568 42.9849 23.0458 42.9849C23.4348 42.9849 23.82 42.9133 24.1794 42.7741C24.5387 42.6348 24.8652 42.4308 25.1402 42.1737L45.1315 23.5157C45.4069 23.2585 45.6253 22.9532 45.7744 22.6172C45.9234 22.2811 46.0002 21.921 46.0002 21.5571C46.0002 21.1933 45.9234 20.8332 45.7744 20.4971C45.6253 20.161 45.4069 19.8557 45.1315 19.5987" fill="#F03C2E"/>
</g>
<defs>
<clipPath id="clip0_305_42">
<rect width="46" height="43" fill="white"/>
</clipPath>
</defs>
</svg>
