<svg width="47" height="46" viewBox="0 0 47 46" fill="none" xmlns="http://www.w3.org/2000/svg">
<path d="M15.7204 37.0391C15.7204 37.2294 15.5024 37.3816 15.2276 37.3816C14.9149 37.4101 14.697 37.2579 14.697 37.0391C14.697 36.8489 14.9149 36.6967 15.1897 36.6967C15.474 36.6682 15.7204 36.8204 15.7204 37.0391ZM12.7734 36.6111C12.7071 36.8013 12.8966 37.0201 13.1808 37.0772C13.4272 37.1723 13.7115 37.0772 13.7683 36.8869C13.8252 36.6967 13.6452 36.4779 13.3609 36.3923C13.1145 36.3257 12.8397 36.4209 12.7734 36.6111ZM16.9617 36.4494C16.6869 36.516 16.4974 36.6967 16.5258 36.9155C16.5542 37.1057 16.8006 37.2294 17.0849 37.1628C17.3597 37.0962 17.5492 36.9155 17.5208 36.7252C17.4923 36.5445 17.2365 36.4209 16.9617 36.4494ZM23.1968 0C10.0538 0 0 10.016 0 23.2089C0 33.7575 6.61411 42.7843 16.0615 45.9612C17.2744 46.18 17.7008 45.4286 17.7008 44.8103C17.7008 44.2206 17.6724 40.9675 17.6724 38.97C17.6724 38.97 11.0393 40.3968 9.64637 36.1355C9.64637 36.1355 8.56613 33.3676 7.0121 32.6542C7.0121 32.6542 4.84214 31.1608 7.16371 31.1893C7.16371 31.1893 9.52319 31.3796 10.8214 33.6434C12.8966 37.315 16.3742 36.2592 17.7292 35.6314C17.9472 34.1095 18.5631 33.0537 19.2454 32.4259C13.9484 31.8361 8.60403 31.0657 8.60403 21.9153C8.60403 19.2995 9.32419 17.9869 10.8403 16.3128C10.594 15.6945 9.78851 13.1454 11.0867 9.85427C13.0671 9.236 17.625 12.4225 17.625 12.4225C19.5202 11.8898 21.5575 11.614 23.5758 11.614C25.5942 11.614 27.6315 11.8898 29.5266 12.4225C29.5266 12.4225 34.0845 9.22649 36.0649 9.85427C37.3631 13.1549 36.5577 15.6945 36.3113 16.3128C37.8274 17.9964 38.756 19.309 38.756 21.9153C38.756 31.0942 33.1748 31.8266 27.8778 32.4259C28.7496 33.1773 29.4887 34.6041 29.4887 36.8394C29.4887 40.0449 29.4603 44.0113 29.4603 44.7913C29.4603 45.4095 29.8962 46.161 31.0996 45.9422C40.5754 42.7843 47 33.7575 47 23.2089C47 10.016 36.3397 0 23.1968 0ZM9.21048 32.8064C9.0873 32.9015 9.11573 33.1202 9.27681 33.301C9.42843 33.4532 9.64637 33.5197 9.76956 33.3961C9.89274 33.301 9.86431 33.0822 9.70323 32.9015C9.55161 32.7493 9.33367 32.6827 9.21048 32.8064ZM8.1871 32.0359C8.12077 32.1595 8.21552 32.3117 8.40504 32.4069C8.55665 32.502 8.74617 32.4734 8.8125 32.3403C8.87883 32.2166 8.78407 32.0644 8.59456 31.9693C8.40504 31.9122 8.25343 31.9408 8.1871 32.0359ZM11.2573 35.4221C11.1056 35.5458 11.1625 35.8311 11.3804 36.0119C11.5984 36.2306 11.8732 36.2592 11.9964 36.107C12.1196 35.9833 12.0627 35.698 11.8732 35.5172C11.6647 35.2985 11.3804 35.2699 11.2573 35.4221ZM10.177 34.0239C10.0254 34.119 10.0254 34.3663 10.177 34.5851C10.3286 34.8038 10.5845 34.899 10.7077 34.8038C10.8593 34.6802 10.8593 34.4329 10.7077 34.2141C10.575 33.9953 10.3286 33.9002 10.177 34.0239Z" fill="white"/>
</svg>
