<svg width="46" height="46" viewBox="0 0 46 46" fill="none" xmlns="http://www.w3.org/2000/svg">
<path d="M14.7448 36.2511C14.7448 36.4373 14.5404 36.5863 14.2826 36.5863C13.9893 36.6142 13.785 36.4652 13.785 36.2511C13.785 36.0649 13.9893 35.9159 14.2471 35.9159C14.5137 35.8881 14.7448 36.037 14.7448 36.2511ZM11.9807 35.8322C11.9185 36.0183 12.0963 36.2325 12.3628 36.2884C12.594 36.3814 12.8606 36.2884 12.9139 36.1021C12.9673 35.9159 12.7984 35.7018 12.5318 35.618C12.3007 35.5528 12.0429 35.646 11.9807 35.8322ZM15.9091 35.6739C15.6514 35.7391 15.4736 35.9159 15.5003 36.1301C15.5269 36.3162 15.758 36.4373 16.0247 36.3721C16.2824 36.3069 16.4602 36.1301 16.4335 35.9438C16.4068 35.767 16.1669 35.646 15.9091 35.6739ZM21.7573 0C9.42989 0 0 9.8029 0 22.7151C0 33.0393 6.20366 41.874 15.0648 44.9833C16.2024 45.1975 16.6023 44.4621 16.6023 43.8569C16.6023 43.2798 16.5757 40.0959 16.5757 38.1409C16.5757 38.1409 10.3542 39.5373 9.04775 35.3667C9.04775 35.3667 8.03454 32.6577 6.57695 31.9595C6.57695 31.9595 4.54165 30.4978 6.71915 30.5257C6.71915 30.5257 8.93221 30.712 10.1499 32.9276C12.0963 36.5211 15.3581 35.4878 16.629 34.8733C16.8335 33.3838 17.4111 32.3505 18.0511 31.736C13.0828 31.1588 8.07009 30.4048 8.07009 21.449C8.07009 18.8889 8.74556 17.6042 10.1676 15.9657C9.93657 15.3606 9.18107 12.8657 10.3987 9.64461C12.2562 9.0395 16.5312 12.1582 16.5312 12.1582C18.3088 11.6368 20.2197 11.3669 22.1128 11.3669C24.0059 11.3669 25.9168 11.6368 27.6943 12.1582C27.6943 12.1582 31.9693 9.03019 33.8268 9.64461C35.0445 12.875 34.289 15.3606 34.0579 15.9657C35.48 17.6135 36.3509 18.8982 36.3509 21.449C36.3509 30.4326 31.1161 31.1495 26.1478 31.736C26.9655 32.4714 27.6587 33.8679 27.6587 36.0556C27.6587 39.1929 27.6321 43.0749 27.6321 43.8383C27.6321 44.4434 28.0409 45.1789 29.1697 44.9647C38.0574 41.874 44.0833 33.0393 44.0833 22.7151C44.0833 9.8029 34.0846 0 21.7573 0ZM8.63891 32.1084C8.52337 32.2015 8.55004 32.4155 8.70112 32.5925C8.84333 32.7415 9.04775 32.8065 9.16329 32.6856C9.27883 32.5925 9.25216 32.3783 9.10108 32.2015C8.95887 32.0525 8.75445 31.9873 8.63891 32.1084ZM7.67904 31.3543C7.61682 31.4753 7.70569 31.6242 7.88345 31.7174C8.02565 31.8105 8.20341 31.7825 8.26562 31.6522C8.32784 31.5312 8.23896 31.3822 8.06121 31.2891C7.88345 31.2332 7.74125 31.2612 7.67904 31.3543ZM10.5587 34.6685C10.4164 34.7895 10.4698 35.0688 10.6742 35.2457C10.8786 35.4598 11.1364 35.4878 11.2519 35.3388C11.3675 35.2177 11.3141 34.9385 11.1364 34.7615C10.9408 34.5475 10.6742 34.5195 10.5587 34.6685ZM9.54545 33.3C9.40326 33.3931 9.40326 33.6351 9.54545 33.8493C9.68764 34.0633 9.92766 34.1565 10.0432 34.0633C10.1854 33.9423 10.1854 33.7003 10.0432 33.4862C9.91875 33.272 9.68764 33.1789 9.54545 33.3Z" fill="white"/>
</svg>
