<svg width="41" height="46" viewBox="0 0 41 46" fill="none" xmlns="http://www.w3.org/2000/svg">
<path d="M3.65189 41.4018L0 0H40.1277L36.4722 41.3954L20.0394 46L3.65189 41.4018Z" fill="#E44D26"/>
<path d="M19.5215 41.619L32.6907 37.9703L35.7895 3.28564H19.5215V41.619Z" fill="#F16529"/>
<path d="M19.5216 18.9404H13.2258L12.7915 13.7905H19.5216V8.7619H7.5918L7.70532 10.1113L8.87495 23.9685H19.5216V18.9404ZM19.5216 31.9996L19.5005 32.0055L14.2023 30.4929L13.8635 26.4828H9.08738L9.75385 34.3784L19.4997 37.2381L19.5216 37.2313V31.9996Z" fill="#EBEBEB"/>
<path d="M19.5215 18.9414V23.97H25.3856L24.833 30.4922L19.5215 32.0064V37.2381L29.2845 34.3809L29.356 33.5309L30.4751 20.2914L30.5913 18.9414H29.3077H19.5215ZM19.5215 8.7619V13.791H31.0247L31.1199 12.6605L31.3372 10.1114L31.4513 8.7619H19.5215Z" fill="white"/>
</svg>
