<svg width="41" height="47" viewBox="0 0 41 47" fill="none" xmlns="http://www.w3.org/2000/svg">
<path d="M3.86978 42.3092L0.169312 0.102417H40.8307L37.1266 42.3027L20.4752 46.9968L3.86978 42.3092Z" fill="#E44D26"/>
<path d="M20.5 43.4088L33.9547 39.6153L37.1206 3.55389H20.5V43.4088Z" fill="#F16529"/>
<path d="M20.5 19.2078H13.7639L13.2992 13.9064H20.5V8.72992H7.73584L7.8573 10.119L9.10873 24.3838H20.5V19.2078ZM20.5 32.6511L20.4774 32.6572L14.8087 31.1001L14.4462 26.9721H9.33602L10.0491 35.0999L20.4765 38.0437L20.5 38.0367V32.6511Z" fill="#EBEBEB"/>
<path d="M20.4825 19.2078V24.3838H26.7507L26.16 31.0973L20.4825 32.6558V38.0409L30.9182 35.0999L30.9946 34.225L32.1908 20.5974L32.315 19.2078H30.943H20.4825ZM20.4825 8.72992V13.9064H32.7783L32.88 12.7428L33.1123 10.119L33.2343 8.72992H20.4825Z" fill="white"/>
</svg>
