<svg width="46" height="46" viewBox="0 0 46 46" fill="none" xmlns="http://www.w3.org/2000/svg">
<g clip-path="url(#clip0_305_52)">
<path d="M1.91699 2.49188H46.917V43.5088H1.91699V2.49188Z" fill="#261300"/>
<path d="M0 0.575012V45.425H46V0.575012H0ZM1.91691 2.49192H44.0839V43.5088H1.91691V2.49192ZM15.9656 25.9706L14.4511 31.7206C14.4131 31.8737 14.3556 31.9125 14.1637 31.9125H11.3461C11.1543 31.9125 11.1161 31.855 11.1543 31.625L16.5974 12.5731C16.693 12.2281 16.7505 11.9212 16.7893 10.9825C16.7893 10.8481 16.8468 10.7906 16.9424 10.7906H20.9674C21.1018 10.7906 21.1593 10.8287 21.1974 10.9825L27.2924 31.6631C27.3305 31.8162 27.2924 31.9125 27.1393 31.9125H23.9574C23.8043 31.9125 23.708 31.8745 23.6698 31.74L22.0793 25.9706H15.9656ZM21.2937 22.8656L19.0131 13.8575H18.975C18.5725 16.1 17.5569 19.895 16.7519 22.8656H21.2937ZM29.9187 12.2087C29.9187 10.9818 30.7811 10.2537 31.8737 10.2537C33.0431 10.2537 33.8287 11.0393 33.8287 12.2087C33.8287 13.4737 33.0043 14.1637 31.8356 14.1637C30.7237 14.1637 29.9187 13.4737 29.9187 12.2087ZM30.1487 16.5593C30.1487 16.4062 30.2061 16.3293 30.3787 16.3293H33.3881C33.5411 16.3293 33.6181 16.3868 33.6181 16.5593V31.6818C33.6181 31.8349 33.58 31.9118 33.3881 31.9118H30.4175C30.2256 31.9118 30.1681 31.8162 30.1681 31.6624V16.56L30.1487 16.5593Z" fill="#FF7C00"/>
</g>
<defs>
<clipPath id="clip0_305_52">
<rect width="46" height="46" fill="white"/>
</clipPath>
</defs>
</svg>
