<svg width="47" height="47" viewBox="0 0 47 47" fill="none" xmlns="http://www.w3.org/2000/svg">
<path d="M1.95856 2.54608H45.0421V44.4547H1.95856V2.54608Z" fill="#261300"/>
<path d="M0 0.587524V46.4125H47V0.587524H0ZM1.95858 2.5461H45.0422V44.4547H1.95858V2.5461ZM16.3127 26.5352L14.7653 32.4102C14.7264 32.5666 14.6677 32.6063 14.4716 32.6063H11.5928C11.3968 32.6063 11.3578 32.5475 11.3968 32.3125L16.9582 12.8464C17.0559 12.4939 17.1146 12.1804 17.1543 11.2213C17.1543 11.0839 17.213 11.0252 17.3107 11.0252H21.4232C21.5605 11.0252 21.6193 11.0641 21.6582 11.2213L27.8857 32.3514C27.9246 32.5079 27.8857 32.6063 27.7293 32.6063H24.4782C24.3218 32.6063 24.2234 32.5674 24.1844 32.43L22.5593 26.5352H16.3127ZM21.7566 23.3627L19.4264 14.1588H19.3875C18.9762 16.45 17.9386 20.3275 17.1161 23.3627H21.7566ZM30.5691 12.4741C30.5691 11.2205 31.4503 10.4766 32.5666 10.4766C33.7614 10.4766 34.5641 11.2793 34.5641 12.4741C34.5641 13.7666 33.7218 14.4716 32.5277 14.4716C31.3916 14.4716 30.5691 13.7666 30.5691 12.4741ZM30.8041 16.9193C30.8041 16.7629 30.8628 16.6843 31.0391 16.6843H34.1139C34.2703 16.6843 34.3489 16.743 34.3489 16.9193V32.3705C34.3489 32.527 34.31 32.6055 34.1139 32.6055H31.0788C30.8827 32.6055 30.8239 32.5079 30.8239 32.3507V16.92L30.8041 16.9193Z" fill="#FF7C00"/>
</svg>
