<svg width="46" height="46" viewBox="0 0 46 46" fill="none" xmlns="http://www.w3.org/2000/svg">
<path d="M0.505859 0.506042H45.4939V45.4944H0.505859V0.506042Z" fill="#F0DB4F"/>
<path d="M41.8122 34.7645C41.4826 32.7121 40.1443 30.9882 36.18 29.3807C34.8029 28.7479 33.2677 28.2947 32.8102 27.251C32.6478 26.6437 32.6262 26.3015 32.7289 25.9339C33.024 24.7408 34.4482 24.3689 35.577 24.711C36.304 24.9546 36.9922 25.5149 37.4073 26.4087C39.3486 25.1515 39.3447 25.1599 40.7002 24.2959C40.2039 23.5265 39.9391 23.1714 39.6142 22.8422C38.4466 21.5381 36.8557 20.8664 34.3113 20.9178L32.9859 21.0892C31.7158 21.4101 30.5056 22.0768 29.7958 22.9706C27.6661 25.3869 28.2735 29.6161 30.8648 31.3566C33.4178 33.2727 37.1683 33.7086 37.6474 35.5005C38.1135 37.6941 36.0352 38.4042 33.9696 38.1519C32.4472 37.8353 31.6006 37.0616 30.6852 35.6546C29.0005 36.6296 29.0005 36.6296 27.2682 37.6259C27.679 38.5239 28.1106 38.9304 28.7992 39.7084C32.058 43.0139 40.2129 42.8515 41.6756 37.8483C41.7349 37.6765 42.1288 36.5309 41.8122 34.7645ZM24.9629 21.1826H20.7549L20.7377 32.0616C20.7377 34.3753 20.8574 36.4963 20.4811 37.1464C19.8655 38.4251 18.2702 38.2666 17.5432 38.0186C16.8032 37.6549 16.427 37.1378 15.9911 36.4069C15.8714 36.1969 15.7815 36.0346 15.7514 36.0219L12.3301 38.1171C12.899 39.2847 13.7371 40.2982 14.8106 40.9566C16.4141 41.9189 18.5692 42.214 20.8232 41.6965C22.2902 41.2692 23.5559 40.384 24.2186 39.0368C25.1767 37.2704 24.9712 35.1325 24.9626 32.7678C24.9841 28.9099 24.9629 25.0528 24.9629 21.1826Z" fill="#323330"/>
</svg>
