<svg width="47" height="47" viewBox="0 0 47 47" fill="none" xmlns="http://www.w3.org/2000/svg">
<path d="M0.516968 0.517029H46.483V46.4834H0.516968V0.517029Z" fill="#F0DB4F"/>
<path d="M42.7211 35.5202C42.3844 33.4232 41.017 31.6618 36.9665 30.0194C35.5595 29.3728 33.9909 28.9098 33.5234 27.8434C33.3575 27.2229 33.3354 26.8733 33.4404 26.4977C33.7419 25.2786 35.1971 24.8986 36.3504 25.2482C37.0932 25.4971 37.7964 26.0696 38.2205 26.9828C40.204 25.6983 40.2 25.7068 41.585 24.8241C41.0779 24.0379 40.8073 23.6751 40.4754 23.3388C39.2824 22.0063 37.6569 21.32 35.0572 21.3725L33.703 21.5476C32.4053 21.8755 31.1687 22.5567 30.4435 23.4699C28.2675 25.9388 28.8881 30.2599 31.5358 32.0382C34.1443 33.996 37.9763 34.4414 38.4658 36.2722C38.942 38.5135 36.8186 39.2391 34.708 38.9813C33.1526 38.6578 32.2875 37.8673 31.3522 36.4297C29.6309 37.4259 29.6309 37.4259 27.861 38.4438C28.2807 39.3614 28.7217 39.7767 29.4252 40.5716C32.7549 43.949 41.0871 43.783 42.5816 38.6711C42.6422 38.4955 43.0446 37.325 42.7211 35.5202ZM25.5055 21.6431H21.2061L21.1885 32.7586C21.1885 35.1226 21.3108 37.2897 20.9263 37.9539C20.2973 39.2604 18.6674 39.0985 17.9246 38.8451C17.1685 38.4735 16.7841 37.9451 16.3387 37.1983C16.2164 36.9838 16.1246 36.8179 16.0938 36.805L12.5981 38.9457C13.1794 40.1387 14.0357 41.1742 15.1325 41.8469C16.7709 42.8302 18.9729 43.1317 21.2759 42.6029C22.7747 42.1663 24.068 41.2619 24.7451 39.8854C25.724 38.0806 25.514 35.8962 25.5052 33.4801C25.5272 29.5384 25.5055 25.5974 25.5055 21.6431Z" fill="#323330"/>
</svg>
