<svg width="48" height="46" viewBox="0 0 48 46" fill="none" xmlns="http://www.w3.org/2000/svg">
<g clip-path="url(#clip0_21_810)">
<path d="M44.502 22.6536C44.502 19.8835 42.5145 17.5526 39.8468 16.887L45.8228 0H16.2075L22.197 16.9409C19.6125 17.6597 17.7083 19.9511 17.7083 22.6679C17.7083 24.6661 18.7583 26.4371 20.3348 27.5288C19.7093 28.3813 18.987 29.1676 18.1673 29.9129C16.6245 31.298 14.9153 32.3639 13.0673 33.0682C11.3993 31.9901 10.677 30.0854 11.3303 28.3806C13.8728 27.6345 15.7215 25.3575 15.7215 22.6809C15.7215 19.3912 12.9285 16.7275 9.50929 16.7275C6.07654 16.7275 3.28429 19.4041 3.28429 22.6931C3.28511 24.2612 3.93486 25.7651 5.09104 26.8748L4.79854 27.4476C3.86854 29.2855 2.81104 31.3634 2.40829 33.7008C1.60204 38.3618 2.92279 42.1044 6.10579 44.2218C7.90579 45.4077 9.87079 46.0065 11.9978 46.0065C15.6525 46.0065 19.3628 44.2484 22.9478 42.5435C25.5053 41.3317 28.1453 40.0667 30.744 39.4529C31.704 39.2265 32.7038 39.0935 33.759 38.9469C35.8995 38.6537 38.109 38.3475 40.0965 37.242C42.417 35.9504 44.0018 33.792 44.46 31.3152C44.8073 29.4105 44.46 27.4929 43.5705 25.8146C44.1683 24.8946 44.5005 23.8165 44.5005 22.6593L44.502 22.6536ZM41.7923 22.6536C41.7923 24.5051 40.2218 26.0101 38.2898 26.0101C36.3578 26.0101 34.7873 24.5051 34.7873 22.6536C34.7873 22.0541 34.9538 21.482 35.2448 20.9889C35.3558 20.8021 35.4953 20.6152 35.6348 20.4571C35.7798 20.2941 35.943 20.1468 36.1215 20.0179L36.1365 20.0035C36.2475 19.9245 36.3728 19.844 36.498 19.7635C36.498 19.7635 36.513 19.7635 36.513 19.7491C36.5685 19.7225 36.624 19.6823 36.6795 19.6557C36.6945 19.6557 36.7073 19.6413 36.7215 19.6413C36.777 19.6147 36.8468 19.5881 36.9165 19.5622C36.9863 19.5363 37.0553 19.509 37.1115 19.4832C37.1265 19.4832 37.1393 19.4688 37.1535 19.4688C37.209 19.4544 37.2645 19.4285 37.32 19.4156C37.335 19.4156 37.362 19.4012 37.3755 19.4012L37.5705 19.361H37.5855L37.794 19.3207C37.809 19.3207 37.836 19.3207 37.8495 19.3063C37.905 19.3063 37.9605 19.292 38.016 19.292H38.0858C38.1555 19.292 38.2245 19.2776 38.3078 19.2776H38.4878C38.5392 19.2755 38.5907 19.2801 38.6408 19.2913H38.6685C38.7795 19.3056 38.8905 19.3178 39.0023 19.3444C39.7915 19.5063 40.499 19.9224 41.0072 20.5232C41.5153 21.1241 41.7935 21.8737 41.7953 22.6471L41.7923 22.6536ZM20.085 2.66369H41.9453L36.9278 16.8475C36.7193 16.8878 36.5108 16.9539 36.3023 17.02L31.0223 6.69875L25.7273 16.9539C25.5188 16.887 25.2968 16.8475 25.0748 16.8073L20.085 2.66369ZM30.021 21.4949C29.757 20.2429 29.091 19.1245 28.146 18.2987L31.023 12.7319L33.9278 18.4187C33.0436 19.2566 32.4391 20.3273 32.1908 21.4949H30.021ZM23.0588 19.3904L23.2538 19.3502H23.2958C23.3513 19.3358 23.4068 19.3358 23.4623 19.3236H23.5178C23.5733 19.3236 23.6153 19.3092 23.6708 19.3092H24.213C24.2685 19.3092 24.3105 19.3236 24.3518 19.3236C24.3795 19.3236 24.3938 19.3236 24.4215 19.338C24.477 19.3523 24.519 19.3523 24.5745 19.3646C24.5895 19.3646 24.6023 19.3646 24.63 19.3789L24.825 19.4192C24.8948 19.4336 24.9503 19.4458 25.005 19.4724C25.02 19.4724 25.0328 19.4867 25.0605 19.4867C25.1025 19.5011 25.158 19.5133 25.1993 19.5399C25.2143 19.5399 25.227 19.5543 25.2413 19.5543C25.2968 19.5809 25.3523 19.5946 25.4078 19.6212H25.4228C25.4872 19.6442 25.548 19.6757 25.6035 19.7146C25.6733 19.7412 25.7288 19.7814 25.7835 19.808C25.7985 19.808 25.7985 19.8224 25.8113 19.8224C25.8668 19.849 25.9088 19.8892 25.9643 19.9158L25.9793 19.9302C26.1458 20.0503 26.2988 20.1832 26.4518 20.3162L26.4668 20.3306C26.6055 20.4772 26.7443 20.6367 26.8568 20.81C27.2296 21.3563 27.4277 21.9951 27.4268 22.6478C27.4268 24.4993 25.8563 26.0044 23.9243 26.0044C21.9923 26.0044 20.4218 24.4993 20.4218 22.6478C20.4068 21.0896 21.5333 19.7714 23.0618 19.3991L23.0588 19.3904ZM9.38404 19.297C11.316 19.297 12.8865 20.8021 12.8865 22.6536C12.8865 24.5051 11.316 26.0101 9.38404 26.0101C7.45204 26.0101 5.88154 24.5051 5.88154 22.6536C5.88154 20.8021 7.45204 19.297 9.38404 19.297ZM41.709 30.8437C41.403 32.5486 40.3065 34.04 38.694 34.932C37.179 35.7708 35.3168 36.0374 33.3578 36.3048C32.2875 36.4514 31.1618 36.611 30.078 36.864C27.1875 37.5432 24.408 38.875 21.7118 40.1537C18.2655 41.7924 15.0143 43.3363 11.9978 43.3363C10.4273 43.3363 9.02404 42.9101 7.68979 42.0181C4.63279 39.9941 4.78504 36.1984 5.14729 34.1205C5.48104 32.1763 6.41179 30.3514 7.30129 28.6077C7.35679 28.5013 7.39879 28.4079 7.45429 28.3015C7.76029 28.4079 8.07979 28.4884 8.41429 28.5416C7.88629 31.3648 9.38704 34.2815 12.3053 35.7197L12.8333 35.9857L13.4033 35.7858C15.8355 34.9593 18.0863 33.6152 20.0738 31.8169C21.1718 30.8357 22.1423 29.7312 22.9643 28.5272C23.2838 28.5804 23.6033 28.594 23.9243 28.594C26.8148 28.594 29.247 26.6893 29.9415 24.1327H32.2763C32.9708 26.703 35.4038 28.594 38.2935 28.594C39.399 28.5943 40.484 28.309 41.4345 27.7682C41.796 28.7744 41.907 29.8058 41.712 30.8444L41.709 30.8437Z" fill="#99424F"/>
</g>
<defs>
<clipPath id="clip0_21_810">
<rect width="48" height="46" fill="white"/>
</clipPath>
</defs>
</svg>
