<svg width="44" height="46" viewBox="0 0 44 46" fill="none" xmlns="http://www.w3.org/2000/svg">
<path d="M42.3188 22.6504C42.3188 19.8807 40.3316 17.5501 37.6642 16.8846L43.6394 0H14.0283L20.0169 16.9385C17.4328 17.6572 15.5289 19.9483 15.5289 22.6647C15.5289 24.6626 16.5787 26.4334 18.155 27.5249C17.5296 28.3773 16.8074 29.1635 15.9878 29.9087C14.4452 31.2936 12.7363 32.3593 10.8885 33.0635C9.22075 31.9856 8.49855 30.0812 9.15176 28.3766C11.6939 27.6306 13.5423 25.3539 13.5423 22.6777C13.5423 19.3885 10.7497 16.7251 7.33101 16.7251C3.89874 16.7251 1.10689 19.4014 1.10689 22.6899C1.10771 24.2578 1.75737 25.7615 2.91338 26.871L2.62092 27.4437C1.69106 29.2814 0.633705 31.359 0.231012 33.696C-0.575124 38.3564 0.74544 42.0985 3.92799 44.2156C5.72774 45.4013 7.69246 46 9.81917 46C13.4734 46 17.1831 44.2421 20.7676 42.5375C23.3248 41.3259 25.9644 40.061 28.5627 39.4473C29.5226 39.221 30.5222 39.088 31.5773 38.9414C33.7175 38.6482 35.9267 38.3421 37.9139 37.2367C40.2341 35.9453 41.8186 33.7872 42.2768 31.3108C42.624 29.4063 42.2768 27.489 41.3874 25.811C41.9851 24.8911 42.3173 23.8131 42.3173 22.6561L42.3188 22.6504ZM39.6095 22.6504C39.6095 24.5016 38.0392 26.0064 36.1075 26.0064C34.1757 26.0064 32.6054 24.5016 32.6054 22.6504C32.6054 22.051 32.7719 21.479 33.0629 20.9859C33.1739 20.7992 33.3133 20.6123 33.4528 20.4542C33.5978 20.2912 33.761 20.144 33.9395 20.0151L33.9545 20.0007C34.0654 19.9217 34.1907 19.8412 34.3159 19.7607C34.3159 19.7607 34.3309 19.7607 34.3309 19.7463C34.3864 19.7197 34.4419 19.6795 34.4974 19.6529C34.5124 19.6529 34.5252 19.6385 34.5394 19.6385C34.5949 19.6119 34.6647 19.5853 34.7343 19.5594C34.8041 19.5335 34.8731 19.5062 34.9293 19.4804C34.9443 19.4804 34.9571 19.466 34.9713 19.466C35.0268 19.4517 35.0823 19.4258 35.1378 19.4129C35.1528 19.4129 35.1798 19.3985 35.1933 19.3985L35.3883 19.3583H35.4033L35.6117 19.318C35.6267 19.318 35.6537 19.318 35.6672 19.3036C35.7227 19.3036 35.7782 19.2893 35.8337 19.2893H35.9035C35.9732 19.2893 36.0422 19.2749 36.1255 19.2749H36.3054C36.3568 19.2728 36.4083 19.2774 36.4584 19.2886H36.4861C36.5971 19.3029 36.7081 19.3151 36.8199 19.3417C37.6089 19.5035 38.3163 19.9196 38.8245 20.5203C39.3325 21.1211 39.6107 21.8706 39.6125 22.6439L39.6095 22.6504ZM17.9052 2.66331H39.7624L34.7456 16.8451C34.5372 16.8854 34.3287 16.9515 34.1202 17.0176L28.841 6.6978L23.5467 16.9515C23.3383 16.8846 23.1163 16.8451 22.8943 16.8049L17.9052 2.66331ZM27.8398 21.4919C27.5759 20.24 26.91 19.1218 25.9651 18.2961L28.8417 12.7301L31.7461 18.4161C30.862 19.2539 30.2576 20.3244 30.0093 21.4919H27.8398ZM20.8786 19.3877L21.0736 19.3475H21.1156C21.1711 19.3331 21.2266 19.3331 21.282 19.3209H21.3375C21.393 19.3209 21.435 19.3065 21.4905 19.3065H22.0326C22.0881 19.3065 22.1301 19.3209 22.1714 19.3209C22.1991 19.3209 22.2134 19.3209 22.2411 19.3353C22.2966 19.3496 22.3386 19.3496 22.3941 19.3619C22.4091 19.3619 22.4219 19.3619 22.4496 19.3762L22.6446 19.4165C22.7143 19.4309 22.7698 19.4431 22.8245 19.4696C22.8395 19.4696 22.8523 19.4839 22.88 19.4839C22.922 19.4983 22.9775 19.5105 23.0188 19.5371C23.0338 19.5371 23.0465 19.5515 23.0608 19.5515C23.1163 19.5781 23.1718 19.5918 23.2273 19.6184H23.2423C23.3067 19.6414 23.3675 19.6729 23.4229 19.7118C23.4927 19.7384 23.5482 19.7786 23.6029 19.8052C23.6179 19.8052 23.6179 19.8196 23.6307 19.8196C23.6862 19.8462 23.7282 19.8864 23.7837 19.913L23.7987 19.9274C23.9652 20.0475 24.1181 20.1803 24.2711 20.3133L24.2861 20.3277C24.4248 20.4743 24.5636 20.6338 24.6761 20.8071C25.0488 21.3533 25.2469 21.992 25.246 22.6446C25.246 24.4958 23.6757 26.0007 21.744 26.0007C19.8123 26.0007 18.242 24.4958 18.242 22.6446C18.227 21.0866 19.3533 19.7686 20.8816 19.3964L20.8786 19.3877ZM7.20578 19.2943C9.13746 19.2943 10.7077 20.7992 10.7077 22.6504C10.7077 24.5016 9.13746 26.0064 7.20578 26.0064C5.27405 26.0064 3.70377 24.5016 3.70377 22.6504C3.70377 20.7992 5.27405 19.2943 7.20578 19.2943ZM39.5262 30.8393C39.2202 32.544 38.1239 34.0352 36.5116 34.9271C34.9968 35.7657 33.1349 36.0323 31.1762 36.2997C30.106 36.4462 28.9805 36.6058 27.8968 36.8588C25.0067 37.5379 22.2276 38.8695 19.5318 40.148C16.086 41.7865 12.8352 43.3302 9.81917 43.3302C8.24889 43.3302 6.84583 42.904 5.51177 42.0122C2.4552 39.9885 2.60743 36.1933 2.96963 34.1157C3.30333 32.1718 4.23395 30.3471 5.12332 28.6037C5.17881 28.4973 5.22081 28.4039 5.2763 28.2975C5.58226 28.4039 5.90171 28.4844 6.23616 28.5376C5.70824 31.3604 7.20878 34.2767 10.1266 35.7147L10.6545 35.9806L11.2245 35.7807C13.6563 34.9544 15.9068 33.6105 17.894 31.8124C18.9919 30.8313 19.9622 29.727 20.7841 28.5232C21.1036 28.5764 21.423 28.59 21.744 28.59C24.6341 28.59 27.0659 26.6855 27.7603 24.1293H30.0948C30.7892 26.6992 33.2219 28.59 36.1112 28.59C37.2165 28.5903 38.3013 28.305 39.2517 27.7643C39.6132 28.7703 39.7241 29.8016 39.5292 30.84L39.5262 30.8393Z" fill="#99424F"/>
</svg>
