<svg width="61" height="45" viewBox="0 0 61 45" fill="none" xmlns="http://www.w3.org/2000/svg">
<g clip-path="url(#clip0_305_61)">
<path d="M0.99252 5.48716C-0.33084 4.23158 -0.33084 2.19653 0.99252 0.940937C2.31609 -0.313646 4.46169 -0.313646 5.78547 0.940937L26.1157 20.2298C27.4394 21.4853 27.4394 23.5144 26.1157 24.77L5.78547 44.0558C4.46169 45.3114 2.31609 45.3114 0.99252 44.0558C-0.33084 42.8002 -0.33084 40.7712 0.99252 39.5156L18.9249 22.4999L0.99252 5.48716ZM57.6112 38.5714C59.4856 38.5714 61 40.0077 61 41.7857C61 43.5636 59.4856 45 57.6112 45H27.1112C25.2366 45 23.7222 43.5636 23.7222 41.7857C23.7222 40.0077 25.2366 38.5714 27.1112 38.5714H57.6112Z" fill="#FCFCFC"/>
</g>
<defs>
<clipPath id="clip0_305_61">
<rect width="61" height="45" fill="white"/>
</clipPath>
</defs>
</svg>
