<svg width="62" height="46" viewBox="0 0 62 46" fill="none" xmlns="http://www.w3.org/2000/svg">
<path d="M1.00879 5.6091C-0.336264 4.32562 -0.336264 2.24534 1.00879 0.961847C2.35406 -0.320616 4.53483 -0.320616 5.88031 0.961847L26.5438 20.6793C27.8892 21.9628 27.8892 24.0369 26.5438 25.3204L5.88031 45.0348C4.53483 46.3183 2.35406 46.3183 1.00879 45.0348C-0.336264 43.7513 -0.336264 41.6772 1.00879 40.3937L19.2351 22.9999L1.00879 5.6091ZM58.5556 39.4285C60.4608 39.4285 62 40.8968 62 42.7143C62 44.5317 60.4608 46 58.5556 46H27.5556C25.6503 46 24.1111 44.5317 24.1111 42.7143C24.1111 40.8968 25.6503 39.4285 27.5556 39.4285H58.5556Z" fill="#FCFCFC"/>
</svg>
