<svg width="63" height="35" viewBox="0 0 63 35" fill="none" xmlns="http://www.w3.org/2000/svg">
<path d="M0.57524 17.6637V15.0227C2.09063 15.0227 3.14176 14.7205 3.72865 14.1161C4.31553 13.5117 4.60898 12.535 4.60898 11.1861V8.28231C4.60898 6.66181 4.83234 5.36541 5.27908 4.39311C5.73457 3.41205 6.36525 2.67187 7.17112 2.17259C7.98575 1.6733 8.94929 1.34043 10.0617 1.174C11.1742 1.00757 12.3918 0.92436 13.7144 0.92436V5.10263C12.6808 5.10263 11.8925 5.2384 11.3494 5.50994C10.8151 5.77273 10.4515 6.18442 10.2588 6.74503C10.0661 7.29687 9.96977 7.99763 9.96977 8.8473V12.6839C9.96977 13.3497 9.84714 13.9847 9.60187 14.5891C9.35661 15.1848 8.90112 15.7147 8.2354 16.179C7.56968 16.6345 6.61927 16.998 5.38419 17.2695C4.1491 17.5323 2.54612 17.6637 0.57524 17.6637ZM13.7144 34.1797C12.3918 34.1797 11.1742 34.0965 10.0617 33.93C8.94929 33.7636 7.98575 33.4308 7.17112 32.9315C6.36525 32.4322 5.73457 31.6964 5.27908 30.7241C4.83234 29.743 4.60898 28.4422 4.60898 26.8217V23.9048C4.60898 22.5559 4.31553 21.5792 3.72865 20.9748C3.14176 20.3704 2.09063 20.0682 0.57524 20.0682V17.4272C2.54612 17.4272 4.1491 17.563 5.38419 17.8345C6.61927 18.0973 7.56968 18.4608 8.2354 18.9251C8.90112 19.3806 9.35661 19.9105 9.60187 20.5149C9.84714 21.1106 9.96977 21.7456 9.96977 22.4201V26.2567C9.96977 27.0977 10.0661 27.7984 10.2588 28.359C10.4515 28.9109 10.8151 29.3226 11.3494 29.5941C11.8925 29.8569 12.6808 29.9883 13.7144 29.9883V34.1797ZM0.57524 20.0682V15.0227H5.29221V20.0682H0.57524ZM16.9106 4.09091H23.9269L31.3374 22.1705H31.6527L39.0633 4.09091H46.0796V31H40.5611V13.4854H40.3378L33.374 30.8686H29.6162L22.6524 13.4197H22.429V31H16.9106V4.09091ZM62.4215 17.4272V20.0682C60.9148 20.0682 59.8637 20.3704 59.2681 20.9748C58.6812 21.5792 58.3877 22.5559 58.3877 23.9048V26.8217C58.3877 28.4422 58.16 29.743 57.7045 30.7241C57.2578 31.6964 56.6271 32.4322 55.8125 32.9315C55.0066 33.4308 54.0474 33.7636 52.935 33.93C51.8313 34.0965 50.6137 34.1797 49.2823 34.1797V29.9883C50.3159 29.9883 51.0999 29.8569 51.6342 29.5941C52.1773 29.3226 52.5452 28.9109 52.7379 28.359C52.9306 27.7984 53.0269 27.0977 53.0269 26.2567V22.4201C53.0269 21.7456 53.1496 21.1106 53.3948 20.5149C53.6401 19.9105 54.0956 19.3806 54.7613 18.9251C55.427 18.4608 56.3774 18.0973 57.6125 17.8345C58.8476 17.563 60.4506 17.4272 62.4215 17.4272ZM49.2823 0.92436C50.6137 0.92436 51.8313 1.00757 52.935 1.174C54.0474 1.34043 55.0066 1.6733 55.8125 2.17259C56.6271 2.67187 57.2578 3.41205 57.7045 4.39311C58.16 5.36541 58.3877 6.66181 58.3877 8.28231V11.1861C58.3877 12.535 58.6812 13.5117 59.2681 14.1161C59.8637 14.7205 60.9148 15.0227 62.4215 15.0227V17.6637C60.4506 17.6637 58.8476 17.5323 57.6125 17.2695C56.3774 16.998 55.427 16.6345 54.7613 16.179C54.0956 15.7147 53.6401 15.1848 53.3948 14.5891C53.1496 13.9847 53.0269 13.3497 53.0269 12.6839V8.8473C53.0269 7.99763 52.9306 7.29687 52.7379 6.74503C52.5452 6.18442 52.1773 5.77273 51.6342 5.50994C51.0999 5.2384 50.3159 5.10263 49.2823 5.10263V0.92436ZM62.4215 15.0227V20.0682H57.7045V15.0227H62.4215Z" fill="url(#paint0_linear_2_4)"/>
<defs>
<linearGradient id="paint0_linear_2_4" x1="62.4016" y1="17.5" x2="0.0655745" y2="17.5" gradientUnits="userSpaceOnUse">
<stop stop-color="#C854A6"/>
<stop offset="1" stop-color="#955BF0"/>
</linearGradient>
</defs>
</svg>
