<svg width="93" height="47" viewBox="0 0 93 47" fill="none" xmlns="http://www.w3.org/2000/svg">
<path fill-rule="evenodd" clip-rule="evenodd" d="M0.00524538 42.3146H3.04779V30.6195L7.79939 40.8162C8.33761 42.0418 9.11083 42.4958 10.608 42.4958C12.1051 42.4958 12.8322 42.0413 13.3882 40.8162L18.1162 30.6195V42.3146H21.1824V30.6195C21.1824 29.4844 20.7139 28.9383 19.7309 28.643C17.4138 27.962 15.8689 28.5524 15.1671 30.0733L10.5099 40.1565L6.01583 30.0733C5.33703 28.5524 3.76855 27.962 1.42842 28.643C0.468446 28.9383 0.000524288 29.4839 0.000524288 30.6195L0 42.3146H0.00524538ZM23.715 32.7995H26.7812V39.2266C26.7581 39.5895 26.8981 40.4074 28.5647 40.4293C29.4303 40.4522 35.1649 40.4293 35.2111 40.4293V32.7537H38.2772V43.2685C38.2772 45.8572 34.9724 46.4243 33.4323 46.4477H23.7906V44.4728H33.4569C35.423 44.2682 35.1891 43.3148 35.1891 42.9967V42.224H28.7053C25.6859 42.2011 23.7428 40.9068 23.7203 39.4307V32.7985L23.715 32.7995ZM89.4832 25.3504C87.6115 25.3046 86.1595 25.4868 84.9425 25.9866C84.592 26.124 84.0297 26.124 83.9835 26.5546C84.1708 26.7353 84.1934 27.0311 84.3576 27.2815C84.6382 27.736 85.1302 28.3483 85.5746 28.6659C86.0666 29.0299 86.5581 29.3928 87.0722 29.7109C87.985 30.2555 89.0147 30.5737 89.9039 31.1188C90.419 31.4369 90.9336 31.8456 91.4488 32.1867C91.7111 32.3684 91.87 32.6641 92.1979 32.7771V32.7084C92.0342 32.5048 91.987 32.2096 91.8238 31.9815C91.5893 31.755 91.3554 31.5499 91.1209 31.3234C90.4426 30.4378 89.5996 29.6651 88.6869 29.0299C87.9378 28.53 86.3001 27.849 85.9958 27.0092L85.9496 26.9634C86.4637 26.9176 87.0722 26.7358 87.5643 26.5994C88.3606 26.3958 89.0856 26.4406 89.9039 26.2365C90.279 26.1449 90.653 26.0319 91.0281 25.9184V25.7148C90.6068 25.3061 90.3026 24.7609 89.8583 24.3751C88.6648 23.376 87.3534 22.3992 85.9958 21.5818C85.2703 21.1277 84.3339 20.832 83.5618 20.4467C83.2801 20.3103 82.8127 20.2421 82.649 20.0151C82.2267 19.5163 81.9933 18.8571 81.689 18.2662C81.0108 17.0171 80.355 15.6321 79.7701 14.3149C79.3489 13.4292 79.0908 12.5436 78.5767 11.7261C76.1658 7.86539 73.5439 5.52656 69.5183 3.23252C68.6528 2.75559 67.6231 2.55047 66.5283 2.30106L64.773 2.20944C64.398 2.05064 64.0239 1.61901 63.6961 1.41439C62.3621 0.596949 58.9214 -1.17435 57.9378 1.16499C57.3057 2.64107 58.8742 4.09425 59.4066 4.844C59.8053 5.36622 60.3194 5.95666 60.6011 6.54709C60.7585 6.93291 60.8109 7.34214 60.9751 7.75086C61.3491 8.75002 61.7006 9.86319 62.1921 10.7947C62.4544 11.2716 62.7298 11.7719 63.0577 12.203C63.245 12.4524 63.5728 12.5665 63.6426 12.9752C63.3147 13.4297 63.2922 14.1102 63.1049 14.6788C62.2619 17.2451 62.5898 20.4243 63.7832 22.3086C64.1582 22.8761 65.0422 24.1257 66.2413 23.6483C67.2947 23.2396 67.0597 21.9452 67.3639 20.8096C67.4347 20.5373 67.3875 20.3556 67.5276 20.1734V20.2192L68.4876 22.104C69.2131 23.2167 70.4773 24.3751 71.5301 25.1478C72.0914 25.5565 72.5362 26.261 73.2381 26.5104V26.4416H73.192C73.0514 26.238 72.8405 26.1464 72.6532 25.9876C72.232 25.5789 71.7641 25.0791 71.4362 24.625C70.4537 23.3536 69.5881 21.9452 68.8154 20.492C68.4404 19.7881 68.1125 19.0159 67.8093 18.312C67.6676 18.0392 67.6677 17.6299 67.4342 17.4945C67.0827 17.9934 66.5687 18.426 66.3101 19.0388C65.8652 20.0151 65.819 21.2189 65.6554 22.4679C65.561 22.4908 65.6029 22.4679 65.561 22.5137C64.8129 22.3325 64.5548 21.5823 64.2742 20.9471C63.5723 19.3346 63.4548 16.7458 64.0633 14.8834C64.227 14.4065 64.9299 12.9075 64.6492 12.4535C64.5076 12.0218 64.0407 11.7724 63.7826 11.4314C63.4784 10.9998 63.1516 10.4551 62.9407 9.97822C62.3794 8.70574 62.0988 7.29837 61.4897 6.02639C61.208 5.43596 60.717 4.82262 60.3189 4.278C59.874 3.66466 59.3835 3.23303 59.0321 2.5067C58.9151 2.25729 58.7514 1.84806 58.9387 1.57524C58.9849 1.39352 59.0793 1.32583 59.2655 1.28002C59.5698 1.03061 60.4364 1.34822 60.7406 1.48362C61.6062 1.82464 62.3317 2.14226 63.0572 2.61867C63.385 2.84569 63.7365 3.27731 64.1577 3.39133H64.6498C65.3989 3.55013 66.2408 3.43714 66.9422 3.64074C68.1828 4.02757 69.3059 4.59459 70.3131 5.20844C73.3787 7.09324 75.9072 9.7731 77.6152 12.9757C77.8958 13.4979 78.0128 13.9748 78.2709 14.52C78.7629 15.6332 79.3715 16.7682 79.8619 17.859C80.354 18.9263 80.8219 20.0171 81.5238 20.9028C81.8753 21.3797 83.279 21.6291 83.9106 21.879C84.3791 22.0826 85.104 22.2659 85.5263 22.5153C86.3216 22.9922 87.1173 23.5373 87.8659 24.0595C88.2399 24.3314 89.4108 24.8994 89.4806 25.3524L89.4832 25.3504ZM65.615 5.61563C65.2916 5.61286 64.9693 5.65101 64.6561 5.72914V5.77495H64.7022C64.8895 6.13837 65.2174 6.38829 65.4513 6.70641L65.9901 7.79667L66.0362 7.75086C66.3641 7.52385 66.5283 7.16043 66.5283 6.61581C66.3877 6.457 66.3646 6.29768 66.2476 6.13888C66.107 5.91187 65.8028 5.79785 65.615 5.61665V5.61563Z" fill="#00678C"/>
<path fill-rule="evenodd" clip-rule="evenodd" d="M40.6136 42.3147H49.4139C50.4437 42.3147 51.4273 42.1111 52.2225 41.7471C53.5565 41.1567 54.1886 40.3627 54.1886 39.3177V37.1377C54.1886 36.2979 53.4631 35.5023 52.0127 34.9577C51.2636 34.6854 50.3272 34.526 49.4145 34.526H45.7162C44.4756 34.526 43.8907 34.1621 43.7265 33.3681C43.7034 33.2775 43.7034 33.1864 43.7034 33.0958V31.7556C43.7034 31.6869 43.7034 31.5968 43.7265 31.5062C43.8901 30.8928 44.218 30.7335 45.3002 30.6205H54.3108V28.6441H45.7445C44.5039 28.6441 43.8487 28.7128 43.2633 28.8945C41.4608 29.4392 40.6651 30.3024 40.6651 31.8233V33.5503C40.6651 34.889 42.2099 36.0255 44.8312 36.2978C45.1119 36.3208 45.4161 36.3208 45.7204 36.3208H48.8804C48.9974 36.3208 49.1139 36.3208 49.2072 36.3437C50.1672 36.4343 50.5885 36.5931 50.8691 36.9331C51.0564 37.1148 51.1036 37.2741 51.1036 37.4787V39.2042C51.1036 39.4078 50.963 39.6816 50.6824 39.9081C50.4017 40.1347 49.9558 40.294 49.3709 40.3169C49.2539 40.3169 49.1847 40.3398 49.0667 40.3398H40.6136V42.3147ZM73.2396 38.8861C73.2396 40.9068 74.8134 42.0419 77.9451 42.2699C78.2493 42.2928 78.53 42.3147 78.8342 42.3147H86.7921V40.3398H78.7645C76.9846 40.3398 76.3063 39.9081 76.3063 38.8637V28.6441H73.2339V38.8866L73.2396 38.8861ZM56.1306 38.9762V31.9368C56.1306 30.1426 57.441 29.0518 59.993 28.7118C60.2737 28.6889 60.5543 28.666 60.8114 28.666H66.6153C66.9195 28.666 67.1776 28.6889 67.4819 28.7118C70.0329 29.0518 71.3197 30.1421 71.3197 31.9368V38.9762C71.3197 40.4294 70.782 41.202 69.5172 41.7247L72.5126 44.3583H68.979L66.545 42.2241L64.0868 42.3605H60.8103C60.21 42.3576 59.6123 42.2815 59.0315 42.134C57.0906 41.6107 56.1306 40.6121 56.1306 38.9762ZM59.4302 38.8184C59.4302 38.909 59.4826 38.9991 59.501 39.1136C59.6647 39.9305 60.4599 40.3851 61.6769 40.3851H64.4394L61.9119 38.1592H65.4455L67.6686 40.1128C68.0909 39.8852 68.348 39.5671 68.4413 39.1584C68.465 39.0678 68.465 38.9548 68.465 38.8632V32.118C68.465 32.0274 68.465 31.9373 68.4413 31.8457C68.2777 31.074 67.4824 30.6429 66.2885 30.6429H61.6775C60.3199 30.6429 59.4307 31.2105 59.4307 32.118L59.4302 38.8184Z" fill="#CE8B2C"/>
</svg>
