<svg width="90" height="45" viewBox="0 0 90 45" fill="none" xmlns="http://www.w3.org/2000/svg">
<path fill-rule="evenodd" clip-rule="evenodd" d="M0.00507617 40.514H2.94947V29.3165L7.5478 39.0793C8.06865 40.2528 8.81693 40.6875 10.2658 40.6875C11.7146 40.6875 12.4183 40.2523 12.9563 39.0793L17.5318 29.3165V40.514H20.4991V29.3165C20.4991 28.2297 20.0457 27.7069 19.0944 27.4241C16.8521 26.7721 15.357 27.3374 14.6778 28.7936L10.1709 38.4477L5.82177 28.7936C5.16487 27.3374 3.64698 26.7721 1.38234 27.4241C0.453335 27.7069 0.000507375 28.2293 0.000507375 29.3165L0 40.514H0.00507617ZM22.95 31.4038H25.9173V37.5574C25.8949 37.9048 26.0304 38.6879 27.6433 38.7089C28.4809 38.7308 34.0305 38.7089 34.0753 38.7089V31.3599H37.0424V41.4273C37.0424 43.9058 33.8443 44.4488 32.3538 44.4712H23.0232V42.5803H32.3776C34.2803 42.3844 34.054 41.4716 34.054 41.1671V40.4272H27.7793C24.8573 40.4053 22.9769 39.1661 22.9551 37.7528V31.4028L22.95 31.4038ZM86.5966 24.2717C84.7853 24.2278 83.3802 24.4023 82.2024 24.8808C81.8632 25.0123 81.3191 25.0123 81.2744 25.4246C81.4556 25.5976 81.4775 25.8808 81.6364 26.1206C81.9079 26.5557 82.3841 27.142 82.8141 27.4461C83.2903 27.7946 83.7659 28.142 84.2634 28.4466C85.1468 28.968 86.1433 29.2727 87.0038 29.7946C87.5023 30.0992 88.0003 30.4905 88.4988 30.8171C88.7527 30.991 88.9064 31.2741 89.2238 31.3823V31.3166C89.0654 31.1216 89.0197 30.839 88.8617 30.6206C88.6348 30.4037 88.4085 30.2073 88.1815 29.9905C87.5251 29.1426 86.7093 28.4028 85.826 27.7946C85.1011 27.316 83.5162 26.6639 83.2217 25.8599L83.177 25.816C83.6745 25.7722 84.2634 25.5981 84.7396 25.4675C85.5103 25.2726 86.2119 25.3155 87.0038 25.1201C87.3668 25.0323 87.7287 24.9242 88.0917 24.8155V24.6206C87.684 24.2292 87.3896 23.7072 86.9596 23.3379C85.8046 22.3813 84.5355 21.446 83.2217 20.6634C82.5196 20.2286 81.6134 19.9455 80.8663 19.5766C80.5936 19.446 80.1413 19.3807 79.9829 19.1634C79.5742 18.6858 79.3484 18.0547 79.0539 17.4889C78.3975 16.293 77.7629 14.9669 77.1969 13.7058C76.7893 12.8577 76.5395 12.0098 76.042 11.2271C73.7088 7.53069 71.1715 5.29139 67.2758 3.09496C66.4382 2.63833 65.4417 2.44194 64.3822 2.20314L62.6835 2.11542C62.3206 1.96338 61.9586 1.55011 61.6414 1.3542C60.3504 0.571545 57.0207 -1.12438 56.0688 1.11541C55.4571 2.52868 56.975 3.92002 57.4903 4.63787C57.8761 5.13787 58.3736 5.70318 58.6462 6.26849C58.7985 6.63789 58.8493 7.02971 59.0082 7.42103C59.3701 8.37768 59.7103 9.44348 60.1859 10.3353C60.4397 10.792 60.7063 11.271 61.0236 11.6837C61.2048 11.9225 61.5221 12.0318 61.5896 12.4231C61.2723 12.8582 61.2505 13.5098 61.0693 14.0542C60.2535 16.5113 60.5708 19.5552 61.7257 21.3593C62.0886 21.9026 62.9441 23.0991 64.1045 22.642C65.1239 22.2507 64.8965 21.0114 65.1909 19.9241C65.2594 19.6634 65.2137 19.4894 65.3493 19.315V19.3588L66.2783 21.1634C66.9804 22.2288 68.2038 23.3379 69.2227 24.0777C69.7659 24.469 70.1963 25.1435 70.8756 25.3823V25.3164H70.831C70.6949 25.1215 70.4908 25.0338 70.3095 24.8817C69.9019 24.4904 69.4491 24.0119 69.1318 23.5771C68.181 22.3598 67.3433 21.0114 66.5955 19.62C66.2326 18.9461 65.9153 18.2067 65.6219 17.5328C65.4848 17.2716 65.4849 16.8797 65.2589 16.7501C64.9187 17.2277 64.4213 17.6419 64.1711 18.2286C63.7405 19.1634 63.6958 20.316 63.5375 21.5118C63.4461 21.5337 63.4867 21.5118 63.4461 21.5557C62.7222 21.3822 62.4724 20.6639 62.2008 20.0557C61.5216 18.5118 61.4079 16.0332 61.9967 14.2501C62.1552 13.7935 62.8354 12.3582 62.5637 11.9236C62.4267 11.5102 61.9749 11.2714 61.7251 10.945C61.4307 10.5317 61.1145 10.0102 60.9104 9.55361C60.3672 8.33528 60.0956 6.9878 59.5062 5.76995C59.2335 5.20464 58.7584 4.6174 58.3731 4.09596C57.9426 3.50872 57.4679 3.09545 57.1278 2.40003C57.0146 2.16123 56.8562 1.76942 57.0375 1.50821C57.0822 1.33422 57.1735 1.26941 57.3537 1.22555C57.6482 0.986753 58.4868 1.29085 58.7812 1.42049C59.6189 1.74699 60.321 2.0511 61.0231 2.50724C61.3403 2.7246 61.6805 3.13785 62.0881 3.24702H62.5643C63.2893 3.39906 64.104 3.29088 64.7828 3.48581C65.9834 3.85618 67.0702 4.39907 68.0449 4.9868C71.0116 6.7914 73.4586 9.35722 75.1115 12.4235C75.383 12.9235 75.4963 13.3801 75.746 13.9021C76.2222 14.968 76.8111 16.0547 77.2857 17.099C77.7619 18.1209 78.2147 19.1653 78.894 20.0133C79.2342 20.4699 80.5926 20.7087 81.2038 20.948C81.6572 21.1429 82.3587 21.3184 82.7674 21.5572C83.537 22.0138 84.3071 22.5357 85.0315 23.0357C85.3934 23.296 86.5266 23.8398 86.5941 24.2736L86.5966 24.2717ZM63.4984 5.37667C63.1854 5.37401 62.8735 5.41054 62.5704 5.48534V5.52921H62.615C62.7963 5.87716 63.1136 6.11645 63.34 6.42103L63.8614 7.46489L63.906 7.42103C64.2233 7.20368 64.3822 6.85573 64.3822 6.33428C64.2462 6.18223 64.2238 6.02969 64.1106 5.87765C63.9745 5.6603 63.6801 5.55113 63.4984 5.37764V5.37667Z" fill="#00678C"/>
<path fill-rule="evenodd" clip-rule="evenodd" d="M39.3035 40.5141H47.8199C48.8165 40.5141 49.7683 40.3192 50.5379 39.9707C51.8289 39.4054 52.4406 38.6452 52.4406 37.6446V35.5574C52.4406 34.7533 51.7385 33.9916 50.3349 33.4702C49.6099 33.2095 48.7037 33.0568 47.8205 33.0568H44.2415C43.0409 33.0568 42.4749 32.7084 42.316 31.9482C42.2936 31.8615 42.2936 31.7742 42.2936 31.6875V30.4043C42.2936 30.3386 42.2936 30.2523 42.316 30.1655C42.4743 29.5782 42.7916 29.4257 43.8389 29.3175H52.5588V27.4252H44.2689C43.0683 27.4252 42.4342 27.491 41.8677 27.665C40.1233 28.1865 39.3533 29.013 39.3533 30.4691V32.1227C39.3533 33.4044 40.8483 34.4925 43.385 34.7532C43.6567 34.7753 43.951 34.7753 44.2455 34.7753H47.3036C47.4168 34.7753 47.5296 34.7753 47.6199 34.7972C48.5489 34.8839 48.9566 35.036 49.2281 35.3615C49.4094 35.5355 49.4551 35.688 49.4551 35.8839V37.536C49.4551 37.7309 49.319 37.9931 49.0475 38.2099C48.7758 38.4269 48.3443 38.5794 47.7783 38.6013C47.665 38.6013 47.5981 38.6232 47.4839 38.6232H39.3035V40.5141ZM70.877 37.2314C70.877 39.1661 72.4 40.2529 75.4307 40.4712C75.7251 40.4931 75.9968 40.5141 76.2911 40.5141H83.9923V38.6232H76.2237C74.5012 38.6232 73.8448 38.2099 73.8448 37.21V27.4252H70.8715V37.2319L70.877 37.2314ZM54.3199 37.3177V30.5778C54.3199 28.86 55.588 27.8156 58.0577 27.4901C58.3294 27.4681 58.6009 27.4462 58.8497 27.4462H64.4664C64.7608 27.4462 65.0106 27.4681 65.305 27.4901C67.7738 27.8156 69.019 28.8595 69.019 30.5778V37.3177C69.019 38.709 68.4987 39.4488 67.2747 39.9492L70.1735 42.4707H66.7538L64.3984 40.4274L62.0195 40.558H58.8487C58.2677 40.5552 57.6893 40.4823 57.1272 40.3411C55.249 39.8401 54.3199 38.884 54.3199 37.3177ZM57.5131 37.1666C57.5131 37.2533 57.5638 37.3396 57.5816 37.4492C57.74 38.2314 58.5096 38.6666 59.6873 38.6666H62.3607L59.9147 36.5354H63.3343L65.4857 38.4059C65.8944 38.188 66.1432 37.8834 66.2335 37.4921C66.2564 37.4054 66.2564 37.2972 66.2564 37.2095V30.7513C66.2564 30.6646 66.2564 30.5783 66.2335 30.4906C66.0752 29.7517 65.3055 29.339 64.1501 29.339H59.6879C58.3741 29.339 57.5136 29.8824 57.5136 30.7513L57.5131 37.1666Z" fill="#CE8B2C"/>
</svg>
