<svg width="60" height="45" viewBox="0 0 60 45" fill="none" xmlns="http://www.w3.org/2000/svg">
<path fill-rule="evenodd" clip-rule="evenodd" d="M0.571289 18.8599C0.571289 19.1861 0.668321 19.4014 0.722695 19.6107C1.07707 20.9718 1.83879 22.1399 2.74254 23.2053C4.02972 24.7238 5.60614 25.9461 7.22098 27.0955C8.6216 28.0923 10.0508 29.0669 11.4571 30.0562C11.6984 30.2261 11.9267 30.4215 12.1888 30.6299C11.9633 30.7505 11.7758 30.8568 11.5808 30.9547C9.72501 31.8866 7.93957 32.9312 6.29379 34.1966C5.30192 34.9596 4.34286 35.7703 3.6655 36.8297C2.57566 38.5338 2.18988 40.3492 3.00222 42.2876C3.23942 42.8538 3.60129 43.3428 4.11176 43.7044C4.27722 43.8213 4.46286 43.9373 4.65644 43.9828C5.15238 44.0984 5.6577 44.174 6.15972 44.2654L7.58144 44.2645C9.15364 44.1257 10.5848 43.5925 11.878 42.7089C13.8993 41.3279 15.261 39.4763 15.8465 37.0998C16.2721 35.3726 16.2894 33.6435 15.7878 31.9241C15.7398 31.7648 15.6845 31.6078 15.6219 31.4535C15.561 31.299 15.4893 31.1487 15.4049 30.9562L18.628 29.1212L18.6763 29.1621C18.6177 29.3519 18.5554 29.5411 18.5023 29.7328C18.1194 31.1176 17.8649 32.5265 17.9563 33.9637C18.0538 35.4951 18.4855 36.9286 19.3911 38.208C20.1233 39.2429 21.868 39.2813 22.6461 38.2428C22.9222 37.8739 23.1899 37.4882 23.391 37.0766C23.9165 36.0023 24.403 34.909 24.905 33.8231L24.9927 33.6245C24.9566 34.1386 24.9144 34.5901 24.8952 35.0422C24.8652 35.748 24.9069 36.4497 25.1506 37.1212C25.3593 37.6957 25.7141 38.1249 26.3788 38.2006C26.8334 38.2521 27.1959 38.046 27.53 37.7848C28.0479 37.3798 28.4769 36.8746 28.7915 36.3002C29.6826 34.6802 30.5976 33.0699 31.4052 31.409C32.2789 29.6127 33.043 27.7638 33.8544 25.9368L33.9884 25.6129C34.1802 26.3587 34.3138 27.0891 34.5599 27.7805C34.8459 28.5829 35.1998 29.3662 35.585 30.1278C35.7673 30.4874 35.7463 30.7208 35.4937 31.0225C34.4361 32.2847 33.3969 33.5623 32.3567 34.8384C32.1266 35.1202 31.8973 35.4069 31.7056 35.7146C31.5894 35.9089 31.5129 36.124 31.4806 36.3476C31.4484 36.5534 31.4978 36.7636 31.6187 36.9342C31.7396 37.1047 31.9224 37.2223 32.1289 37.2623C32.5457 37.3511 32.9731 37.3813 33.3983 37.3518C34.85 37.246 36.1682 36.7416 37.3334 35.8868C38.8433 34.7795 39.328 33.2686 38.9623 31.4777C38.8634 30.9919 38.6887 30.5195 38.5184 30.0512C38.4421 29.8401 38.4369 29.692 38.5761 29.4953C39.7832 27.7889 40.8144 25.9786 41.7734 24.1265C41.8115 24.0536 41.8504 23.9808 41.9169 23.9028C42.2277 25.5039 42.6955 27.0468 43.5337 28.4469C43.1061 28.8548 42.6828 29.2247 42.2999 29.6321C41.4566 30.5296 40.7254 31.5042 40.3438 32.6927C40.1798 33.2049 40.0537 33.7257 40.1267 34.2728C40.2402 35.1225 40.9433 35.6747 41.7876 35.4811C43.5941 35.0672 45.1537 34.2245 46.2932 32.7316C47.06 31.7264 47.1299 30.6053 46.8088 29.4308C46.7206 29.1114 46.6161 28.7973 46.5037 28.4312C46.9494 28.2943 47.3839 28.13 47.8334 28.0284C50.1673 27.5012 52.476 27.593 54.725 28.4274C56.038 28.9147 57.0988 29.7301 57.7278 31.0127C58.4961 32.5808 58.0715 34.0686 56.5784 35.0598C56.4393 35.1522 56.2799 35.225 56.1645 35.3406C56.1277 35.3829 56.1 35.4325 56.0834 35.486C56.0669 35.5396 56.0619 35.5959 56.0684 35.6515C56.0783 35.7085 56.2306 35.7801 56.3183 35.7791C56.8091 35.7754 57.2071 35.5206 57.5891 35.2589C58.5463 34.6032 59.2448 33.721 59.3952 32.5595L59.4248 32.4722L59.3887 31.7158C59.3741 31.6721 59.3994 31.629 59.3961 31.596C59.1927 29.9046 58.28 28.5926 56.9526 27.5643C55.415 26.374 53.5995 25.8839 51.6795 25.8064C50.1223 25.7401 48.5672 25.977 47.1022 26.5039C46.6817 26.6547 46.265 26.8334 45.8422 27.0018C45.7855 26.9002 45.7245 26.8028 45.6744 26.702C45.2404 25.8222 44.7144 24.9813 44.5982 23.9724C44.5156 23.2559 44.4144 22.5403 44.5865 21.8317C44.7519 21.15 44.9676 20.4799 45.1705 19.8075C45.275 19.4612 45.2015 19.2673 44.8677 19.1114C44.7514 19.0539 44.6273 19.0136 44.4993 18.9916C43.6789 18.8737 42.8699 18.9411 42.0754 19.1699C41.7941 19.2511 41.5898 19.407 41.5273 19.7152C41.4917 19.8919 41.4191 20.0613 41.3684 20.2358C41.1609 20.9612 41.0137 21.7004 40.678 22.3914C39.8371 24.1247 38.8771 25.7925 37.8945 27.4483C37.7882 27.6269 37.6761 27.8023 37.5421 28.0191C37.1971 27.3044 36.8291 26.6631 36.7176 25.9113C36.5915 25.0612 36.4921 24.2124 36.7059 23.3687C36.8648 22.7394 37.0723 22.1218 37.2637 21.5008C37.3541 21.2057 37.3123 21.0507 37.0423 20.8952C36.906 20.8168 36.7517 20.7472 36.598 20.7245C35.7569 20.5976 34.8974 20.6672 34.0883 20.9278C33.8338 21.0094 33.7002 21.1723 33.6223 21.4321C33.3937 22.1988 33.1987 22.984 32.8776 23.7131C31.5772 26.6645 30.2394 29.6006 28.903 32.5362C28.6241 33.1493 28.2973 33.741 27.9828 34.3378C27.9032 34.489 27.7869 34.6222 27.6876 34.7642C27.6078 34.671 27.5769 34.6069 27.5773 34.5428C27.5798 34.1656 27.5343 33.7772 27.6069 33.4124C27.83 32.3092 28.0766 31.2108 28.3466 30.118C28.5669 29.2149 28.8233 28.3202 29.0676 27.4232C29.1495 27.1229 29.151 26.8422 28.933 26.5897C28.5669 26.167 27.8019 26.0741 27.3482 26.4L27.1476 26.5123L27.1865 26.1921C27.2821 25.5057 27.3013 24.8217 27.111 24.1455C26.8738 23.3028 26.2663 22.8179 25.3832 22.8448C24.9716 22.8573 24.5394 22.9269 24.1583 23.0754C22.5556 23.6973 21.3233 24.7984 20.2743 26.1233C20.177 26.2464 20.0564 26.3495 19.9194 26.4269C18.5633 27.1712 17.203 27.9063 15.8432 28.6441L14.3295 29.4651C13.9237 29.0818 13.5548 28.684 13.1361 28.3467C11.8578 27.3146 10.5589 26.308 9.27176 25.2876C8.13082 24.3831 7.0255 23.4411 6.17988 22.2433C5.55082 21.3523 5.14536 20.3773 5.10644 19.2757C5.05722 17.8719 5.45942 16.5892 6.18129 15.3952C7.10472 13.8675 8.36426 12.6414 9.74891 11.5309C11.2138 10.3569 12.7982 9.36003 14.4402 8.45001C16.7376 7.17708 19.1005 6.05034 21.6341 5.30645C24.2319 4.54353 26.8677 4.10685 29.5865 4.41127C30.6552 4.531 31.693 4.77324 32.646 5.29067C33.3758 5.68652 33.9744 6.20487 34.2528 7.01513C34.5276 7.81239 34.5191 8.62032 34.3288 9.43011C33.9421 11.0701 33.035 12.4219 31.8937 13.6299C30.0215 15.61 27.7377 16.9581 25.1666 17.8487C23.6883 18.3613 22.1502 18.6862 20.5893 18.8153C19.31 18.9216 18.0576 18.8093 16.8463 18.3689C16.0443 18.077 15.3458 17.6306 14.7843 16.9827C14.6839 16.8667 14.5555 16.7409 14.3684 16.8495C14.1852 16.9563 14.1528 17.1289 14.2143 17.3038C14.3169 17.5943 14.4116 17.897 14.5715 18.1568C14.9732 18.8088 15.5591 19.2817 16.2041 19.6873C17.443 20.4673 18.8277 20.7296 20.2634 20.7904C22.4422 20.8836 24.568 20.5615 26.6638 19.9829C29.6559 19.1569 32.2573 17.6978 34.3438 15.3961C36.081 13.4795 37.3217 11.3165 37.5876 8.70477C37.7173 7.43 37.5791 6.1812 36.9763 5.01827C36.3223 3.75834 35.2827 2.82139 34.0395 2.17588C32.2293 1.23615 30.2755 0.689026 28.2589 0.689026H26.2387C23.7965 0.689026 21.4354 1.38187 19.1404 2.20836C17.4032 2.83439 15.6998 3.57318 14.046 4.39085C10.4445 6.17239 7.09066 8.32053 4.33582 11.2743C2.96332 12.7458 1.80129 14.3696 1.13286 16.2816C0.931104 16.8524 0.757308 17.4325 0.612071 18.0199M13.6616 34.7322C13.5055 36.8015 12.5582 38.479 11.0099 39.8378C10.1389 40.6017 9.14004 41.1455 7.9766 41.3367C7.55472 41.4058 7.123 41.4226 6.71379 41.2495C6.1302 41.0026 5.99942 40.4898 5.98816 39.9436C5.97082 39.073 6.27879 38.286 6.70114 37.537C7.25238 36.5606 8.0605 35.8162 8.92348 35.121C10.2828 34.0254 11.7576 33.0983 13.2678 32.223L13.3817 32.1766C13.6152 33.0305 13.7263 33.8737 13.6616 34.7322ZM25.4544 25.7391C25.3443 26.4 25.2065 27.0613 25.0115 27.7016C24.3373 29.9185 23.4716 32.0666 22.5355 34.186C22.3626 34.5781 22.1108 34.9359 21.8919 35.3077C21.8547 35.3648 21.8101 35.4169 21.7593 35.4627C21.4883 35.7276 21.2315 35.7137 21.0945 35.367C20.9352 34.9642 20.8372 34.5331 20.7528 34.1066C20.6961 33.8203 20.7098 33.5196 20.6919 33.2263C20.7102 31.1408 21.3528 29.2456 22.4432 27.4812C22.8927 26.7535 23.3821 26.0603 24.1298 25.5999C24.3623 25.4568 24.6139 25.3465 24.8773 25.2723C25.2758 25.1614 25.5205 25.3437 25.4544 25.7391ZM33.5 35.8872L36.3917 32.5446C36.5122 33.786 34.3808 36.264 33.5 35.8872ZM42.7359 33.638C42.5315 33.7539 42.3088 33.8375 42.0993 33.9446C41.9076 34.0431 41.8443 33.9438 41.8387 33.7804C41.8358 33.6674 41.8505 33.5545 41.8822 33.4458C42.2727 32.0824 42.9913 30.9185 44.0605 29.9718L44.1355 29.9338C44.6441 31.3422 44.0562 32.889 42.7359 33.638Z" fill="#CB6699"/>
</svg>
