<svg width="62" height="47" viewBox="0 0 62 47" fill="none" xmlns="http://www.w3.org/2000/svg">
<path fill-rule="evenodd" clip-rule="evenodd" d="M0.590454 19.6981C0.590454 20.0388 0.69072 20.2637 0.746907 20.4823C1.11309 21.9039 1.9002 23.1239 2.83408 24.2367C4.16417 25.8226 5.79313 27.0993 7.4618 28.2998C8.90911 29.3409 10.386 30.3588 11.8391 31.3921C12.0885 31.5695 12.3244 31.7736 12.5952 31.9912C12.3622 32.1172 12.1685 32.2282 11.967 32.3305C10.0493 33.3038 8.20434 34.3948 6.5037 35.7165C5.47877 36.5134 4.48774 37.3601 3.78781 38.4666C2.66164 40.2464 2.263 42.1425 3.10242 44.1671C3.34752 44.7584 3.72145 45.2692 4.24894 45.6468C4.41992 45.7689 4.61174 45.8901 4.81178 45.9376C5.32425 46.0583 5.84641 46.1373 6.36517 46.2328L7.83428 46.2318C9.45888 46.0869 10.9377 45.53 12.2741 44.6071C14.3627 43.1647 15.7698 41.2308 16.3748 38.7487C16.8146 36.9447 16.8325 35.1388 16.3142 33.343C16.2646 33.1766 16.2074 33.0126 16.1428 32.8515C16.0798 32.6901 16.0057 32.5331 15.9185 32.332L19.2491 30.4155L19.299 30.4582C19.2384 30.6564 19.174 30.8541 19.1192 31.0543C18.7235 32.5006 18.4605 33.9721 18.555 35.4732C18.6557 37.0727 19.1018 38.5699 20.0376 39.9062C20.7942 40.987 22.5971 41.0272 23.4011 39.9425C23.6864 39.5572 23.963 39.1544 24.1708 38.7245C24.7138 37.6024 25.2166 36.4605 25.7353 35.3264L25.8259 35.1189C25.7886 35.6559 25.745 36.1275 25.7252 36.5996C25.6942 37.3368 25.7373 38.0697 25.9891 38.771C26.2047 39.3711 26.5714 39.8194 27.2582 39.8984C27.728 39.9522 28.1025 39.737 28.4478 39.4641C28.9829 39.0411 29.4263 38.5135 29.7513 37.9136C30.6721 36.2216 31.6176 34.5397 32.4522 32.805C33.355 30.9288 34.1446 28.9978 34.983 27.0896L35.1215 26.7513C35.3197 27.5302 35.4577 28.2931 35.712 29.0152C36.0075 29.8533 36.3732 30.6714 36.7713 31.4668C36.9597 31.8424 36.938 32.0862 36.6769 32.4013C35.5841 33.7196 34.5103 35.054 33.4354 36.3868C33.1976 36.6811 32.9607 36.9806 32.7626 37.3019C32.6425 37.5049 32.5634 37.7295 32.5301 37.9631C32.4968 38.178 32.5479 38.3976 32.6728 38.5757C32.7977 38.7538 32.9866 38.8766 33.2 38.9184C33.6307 39.0112 34.0723 39.0427 34.5117 39.0119C36.0118 38.9014 37.3739 38.3746 38.578 37.4818C40.1382 36.3253 40.6391 34.7472 40.2612 32.8767C40.159 32.3693 39.9784 31.8759 39.8025 31.3868C39.7236 31.1663 39.7183 31.0117 39.8621 30.8062C41.1094 29.024 42.175 27.1332 43.166 25.1988C43.2053 25.1227 43.2455 25.0466 43.3143 24.9652C43.6354 26.6374 44.1188 28.2489 44.9849 29.7112C44.5431 30.1373 44.1057 30.5236 43.71 30.9491C42.8386 31.8865 42.083 32.9044 41.6887 34.1457C41.5192 34.6807 41.3889 35.2246 41.4644 35.796C41.5817 36.6835 42.3082 37.2603 43.1806 37.0581C45.0474 36.6258 46.6589 35.7456 47.8364 34.1864C48.6288 33.1365 48.701 31.9655 48.3692 30.7388C48.2781 30.4053 48.1701 30.0772 48.0539 29.6948C48.5145 29.5518 48.9635 29.3802 49.428 29.2741C51.8397 28.7235 54.2253 28.8194 56.5493 29.6909C57.9061 30.1998 59.0022 31.0514 59.6522 32.3911C60.4461 34.0288 60.0073 35.5828 58.4645 36.618C58.3207 36.7145 58.156 36.7906 58.0368 36.9113C57.9987 36.9555 57.9701 37.0073 57.953 37.0632C57.9359 37.1191 57.9307 37.178 57.9375 37.236C57.9477 37.2956 58.1051 37.3703 58.1957 37.3693C58.7029 37.3654 59.1141 37.0993 59.5089 36.826C60.498 36.1411 61.2197 35.2197 61.3752 34.0066L61.4057 33.9154L61.3684 33.1254C61.3534 33.0798 61.3795 33.0347 61.3761 33.0003C61.1659 31.2337 60.2228 29.8634 58.8511 28.7894C57.2623 27.5462 55.3863 27.0343 53.4023 26.9534C51.7932 26.8841 50.1862 27.1316 48.6724 27.6819C48.2379 27.8394 47.8073 28.026 47.3704 28.2019C47.3118 28.0958 47.2488 27.994 47.197 27.8888C46.7485 26.9699 46.205 26.0916 46.0849 25.0379C45.9996 24.2895 45.895 23.5421 46.0728 22.802C46.2438 22.09 46.4666 21.3901 46.6763 20.6878C46.7843 20.3262 46.7083 20.1236 46.3634 19.9608C46.2432 19.9008 46.115 19.8587 45.9827 19.8357C45.135 19.7126 44.299 19.7829 43.478 20.0219C43.1874 20.1067 42.9762 20.2695 42.9117 20.5914C42.8749 20.776 42.7999 20.9529 42.7475 21.1352C42.533 21.8928 42.3809 22.6649 42.0341 23.3866C41.1651 25.1969 40.1731 26.9388 39.1578 28.6682C39.0479 28.8548 38.9321 29.038 38.7936 29.2644C38.4371 28.5179 38.0569 27.8481 37.9416 27.0629C37.8113 26.175 37.7086 25.2885 37.9295 24.4073C38.0937 23.7501 38.3082 23.105 38.5059 22.4564C38.5994 22.1482 38.5562 21.9863 38.2772 21.8239C38.1363 21.742 37.9769 21.6693 37.8181 21.6456C36.9489 21.5131 36.0608 21.5858 35.2247 21.8579C34.9617 21.9432 34.8237 22.1133 34.7432 22.3847C34.5069 23.1854 34.3054 24.0055 33.9736 24.767C32.6299 27.8496 31.2475 30.9162 29.8666 33.9823C29.5784 34.6226 29.2407 35.2406 28.9157 35.8639C28.8334 36.0219 28.7133 36.161 28.6106 36.3093C28.5282 36.2119 28.4963 36.145 28.4967 36.0781C28.4992 35.6841 28.4522 35.2784 28.5273 34.8974C28.7578 33.7452 29.0126 32.598 29.2916 31.4566C29.5193 30.5134 29.7842 29.5789 30.0366 28.642C30.1213 28.3284 30.1228 28.0352 29.8976 27.7715C29.5193 27.33 28.7288 27.233 28.2599 27.5733L28.0526 27.6906L28.0928 27.3562C28.1916 26.6393 28.2115 25.9249 28.0148 25.2187C27.7697 24.3385 27.142 23.832 26.2294 23.8601C25.8041 23.8732 25.3575 23.9459 24.9637 24.101C23.3076 24.7505 22.0342 25.9006 20.9502 27.2844C20.8497 27.4129 20.7251 27.5206 20.5835 27.6014C19.1822 28.3788 17.7766 29.1466 16.3714 29.9172L14.8073 30.7747C14.3879 30.3743 14.0067 29.9589 13.5741 29.6066C12.2532 28.5286 10.911 27.4773 9.58094 26.4115C8.40197 25.4668 7.25981 24.4829 6.386 23.2319C5.73597 22.3013 5.31699 21.283 5.27678 20.1324C5.22592 18.6662 5.64152 17.3265 6.38745 16.0794C7.34167 14.4838 8.64319 13.2033 10.074 12.0434C11.5877 10.8172 13.2249 9.77605 14.9217 8.82558C17.2956 7.49608 19.7373 6.31926 22.3554 5.54231C25.0398 4.74548 27.7634 4.28939 30.5728 4.60734C31.6772 4.73239 32.7496 4.9854 33.7343 5.52583C34.4885 5.93927 35.107 6.48066 35.3947 7.32693C35.6786 8.15962 35.6699 9.00346 35.4732 9.84924C35.0736 11.5621 34.1363 12.974 32.9569 14.2357C31.0223 16.3038 28.6624 17.7118 26.0056 18.642C24.478 19.1774 22.8887 19.5167 21.2757 19.6516C19.9538 19.7626 18.6596 19.6453 17.408 19.1853C16.5792 18.8804 15.8575 18.4142 15.2772 17.7375C15.1735 17.6164 15.0408 17.485 14.8475 17.5984C14.6582 17.7099 14.6247 17.8902 14.6882 18.0729C14.7943 18.3763 14.8921 18.6924 15.0573 18.9638C15.4724 19.6448 16.0779 20.1387 16.7444 20.5623C18.0246 21.377 19.4554 21.6509 20.939 21.7144C23.1904 21.8118 25.3871 21.4754 27.5527 20.871C30.6445 20.0083 33.3327 18.4844 35.4887 16.0804C37.2838 14.0786 38.5659 11.8195 38.8406 9.09167C38.9747 7.76024 38.8319 6.45594 38.209 5.24132C37.5332 3.92539 36.4589 2.9468 35.1743 2.2726C33.3037 1.29111 31.2848 0.719666 29.201 0.719666H27.1134C24.5898 0.719666 22.15 1.4433 19.7785 2.30653C17.9834 2.96038 16.2232 3.732 14.5143 4.58602C10.7928 6.44673 7.32714 8.69035 4.48047 11.7754C3.06222 13.3123 1.86145 15.0083 1.17074 17.0052C0.962263 17.6014 0.782674 18.2073 0.632595 18.8208M14.1171 36.2759C13.9558 38.4371 12.9769 40.1892 11.377 41.6084C10.477 42.4062 9.44483 42.9742 8.24261 43.1739C7.80667 43.2461 7.36056 43.2636 6.9377 43.0828C6.33466 42.825 6.19952 42.2894 6.18789 41.7189C6.16997 40.8096 6.4882 39.9876 6.92463 39.2053C7.49425 38.1855 8.32931 37.4081 9.22105 36.682C10.6257 35.5377 12.1496 34.5693 13.7102 33.6552L13.8279 33.6067C14.0692 34.4985 14.184 35.3792 14.1171 36.2759V36.2759ZM26.303 26.8831C26.1892 27.5733 26.0468 28.264 25.8453 28.9328C25.1487 31.2482 24.2541 33.4918 23.2868 35.7054C23.1081 36.1149 22.848 36.4886 22.6218 36.8769C22.5833 36.9366 22.5372 36.991 22.4847 37.0388C22.2047 37.3155 21.9393 37.301 21.7978 36.9389C21.6332 36.5182 21.5319 36.0679 21.4447 35.6225C21.3861 35.3234 21.4002 35.0094 21.3818 34.703C21.4007 32.5249 22.0647 30.5454 23.1914 28.7026C23.6559 27.9426 24.1616 27.2185 24.9342 26.7377C25.1745 26.5882 25.4345 26.473 25.7067 26.3955C26.1185 26.2797 26.3713 26.4701 26.303 26.8831V26.8831ZM34.6168 37.4822L37.6049 33.991C37.7294 35.2876 35.527 37.8758 34.6168 37.4822ZM44.1605 35.133C43.9493 35.2541 43.7192 35.3414 43.5027 35.4533C43.3046 35.5561 43.2392 35.4524 43.2334 35.2818C43.2305 35.1637 43.2456 35.0458 43.2784 34.9323C43.6819 33.5083 44.4245 32.2927 45.5293 31.3039L45.6068 31.2642C46.1324 32.7352 45.5249 34.3507 44.1605 35.133Z" fill="#CB6699"/>
</svg>
