<svg width="56" height="36" viewBox="0 0 56 36" fill="none" xmlns="http://www.w3.org/2000/svg">
<path d="M27 0C19.8001 0 15.2999 3.88889 13.5 11.6666C16.2 7.77776 19.3499 6.31945 22.9501 7.29166C25.004 7.84637 26.4721 9.45604 28.0972 11.2378C30.7445 14.1404 33.8081 17.5 40.5001 17.5C47.7001 17.5 52.2001 13.6111 54 5.83334C51.3 9.72221 48.1501 11.1805 44.5501 10.2084C42.4959 9.65361 41.0279 8.04394 39.4029 6.26209C36.7557 3.35945 33.6921 0 27 0ZM13.5 17.5C6.30001 17.5 1.8 21.3889 0 29.1665C2.7 25.2776 5.85001 23.8194 9.45 24.7916C11.504 25.3463 12.9722 26.9559 14.5972 28.7379C17.2444 31.6407 20.3081 35 27 35C34.2 35 38.7001 31.1111 40.5001 23.3334C37.8001 27.2224 34.6501 28.6806 31.0499 27.7084C28.9961 27.1537 27.5278 25.5441 25.9028 23.7622C23.2556 20.8594 20.192 17.5 13.5 17.5Z" fill="url(#paint0_linear_305_18)"/>
<defs>
<linearGradient id="paint0_linear_305_18" x1="-1.5" y1="11.2" x2="46.8639" y2="37.0141" gradientUnits="userSpaceOnUse">
<stop stop-color="#2298BD"/>
<stop offset="1" stop-color="#0ED7B5"/>
</linearGradient>
</defs>
</svg>
